<svg width="91" height="87" viewBox="0 0 91 87" fill="none" xmlns="http://www.w3.org/2000/svg">
<g clip-path="url(#clip0_148_1956)">
<path d="M6.71835 2.22598C3.67909 2.90566 0.9953 5.77734 0.266589 9.09082C-0.124426 10.858 -0.124426 59.6426 0.266589 61.3928C1.03085 64.8422 3.73241 67.6629 6.89608 68.2916C8.06913 68.5295 18.982 68.5465 19.6219 68.3086C20.706 67.9178 21.026 66.4055 20.1906 65.6068L19.7285 65.165L13.5433 65.0801C7.60702 64.9951 7.34042 64.9781 6.64725 64.6213C5.65194 64.1115 4.53221 62.8711 4.05233 61.6986L3.64354 60.7471V44.4346V28.1221L42.2652 28.0711L80.8691 28.0371V36.7031V45.3691H80.2115C79.3939 45.3691 78.1142 45.9129 77.4744 46.4906L76.9945 46.9324L75.7859 46.4227C75.1105 46.1508 74.3818 45.8619 74.1685 45.8109C73.8664 45.726 73.7598 45.5221 73.6709 44.8084C73.4576 43.3131 72.6933 42.2426 71.3781 41.5969C70.525 41.1721 67.4146 40.9852 65.8506 41.274C63.9133 41.6139 62.6336 42.9223 62.4381 44.7404L62.3492 45.641L60.7674 46.2867L59.1855 46.9324L58.6346 46.4736C57.6748 45.726 57.0349 45.4881 55.8974 45.4881C55.1687 45.4881 54.6178 45.59 54.1201 45.8449C53.1603 46.3207 50.2099 49.2094 49.8545 49.991C49.3035 51.2824 49.6945 53.1516 50.7431 54.2051L51.1875 54.6469L50.4943 56.1592L49.8012 57.6885L48.8592 57.7734C47.7572 57.8924 47.0285 58.2152 46.3709 58.9119C45.4289 59.8805 45.2512 60.4072 45.1801 62.8201L45.109 65.0801H39.5992H34.0894L33.574 65.5729C32.7031 66.4055 32.9519 67.7479 34.0717 68.2916C34.3383 68.4275 36.8443 68.4785 42.1586 68.4785H49.8545L50.5299 70.0078L51.223 71.5541L50.6898 72.1148C49.5701 73.3383 49.3035 75.1055 50.05 76.4988C50.5121 77.3654 53.3381 79.9822 54.2267 80.373C55.3287 80.8488 56.5906 80.8148 57.7103 80.2881C58.208 80.0502 58.7412 79.7104 58.9012 79.5404C59.1855 79.2346 59.2566 79.2516 60.7674 79.8463L62.3492 80.458L62.5447 81.5625C62.7935 82.9898 63.4334 83.8564 64.6775 84.4852C65.5662 84.927 65.7439 84.9609 67.9301 84.9609C69.2097 84.9609 70.5605 84.876 70.9338 84.774C72.4267 84.3322 73.5287 82.9559 73.7064 81.2906C73.7598 80.7809 73.9019 80.373 74.0086 80.373C74.1152 80.373 74.8439 80.1012 75.626 79.7783L77.0301 79.1836L77.581 79.6934C78.7008 80.7299 80.6203 81.0188 82.0244 80.373C82.9486 79.9482 85.9346 77.0596 86.29 76.2439C86.8588 74.9186 86.5211 73.1514 85.4902 72.1318L84.957 71.6051L85.5791 70.2627C85.9168 69.515 86.2012 68.8014 86.2012 68.6824C86.2012 68.5635 86.45 68.4785 86.841 68.4785C87.9963 68.4785 88.9205 68.1047 89.7558 67.2891C90.8045 66.2865 91 65.6238 91 62.9051C91 60.815 90.9644 60.6451 90.5023 59.7955C89.8269 58.5551 88.8672 57.9264 87.4453 57.7904L86.3433 57.6885L85.9346 56.652C85.7035 56.0742 85.4014 55.3775 85.2414 55.0887C84.9926 54.6299 84.9926 54.5619 85.2414 54.358C85.4014 54.2391 85.7568 53.7463 86.0412 53.2705C86.9832 51.7072 86.6988 50.008 85.2236 48.4447L84.6193 47.816L84.566 28.6998L84.5127 9.60059L84.0328 8.22422C83.1974 5.91328 81.4557 3.78926 79.6605 2.90566C77.7943 1.98809 79.6605 2.03906 42.123 2.05605C22.7144 2.07305 7.07382 2.14101 6.71835 2.22598ZM77.3678 5.70937C78.4519 6.06622 79.6072 7.13672 80.2648 8.42812L80.7803 9.43066L80.8336 17.0262L80.8869 24.6387H42.2119H3.5369L3.59022 17.1961C3.64354 9.94043 3.66132 9.75352 4.05233 8.81895C4.70995 7.25567 6.02518 6.01524 7.46483 5.59043C7.71366 5.52246 23.3543 5.45449 42.2297 5.45449C73.2088 5.4375 76.6213 5.47149 77.3678 5.70937ZM70.0273 45.9129C70.0273 46.7455 70.134 47.3402 70.3473 47.748C70.6139 48.2918 70.8094 48.3937 72.3379 48.8695C73.2621 49.1584 74.684 49.7191 75.4838 50.093C76.3014 50.4838 77.1367 50.8066 77.3678 50.8066C77.8654 50.8066 78.3986 50.4668 79.5006 49.4643L80.3359 48.6996L81.6689 49.957C82.3976 50.6537 83.0019 51.2994 83.0019 51.4014C83.0019 51.5033 82.6109 51.9621 82.1133 52.4209C81.6334 52.8797 81.1357 53.5084 81.0291 53.8143C80.8513 54.341 80.9047 54.5279 81.7223 56.1252C82.2199 57.0768 82.7887 58.4021 82.9842 59.0648C83.5174 60.7811 83.8728 61.0529 85.8101 61.1719L87.3564 61.2568L87.4097 62.9391C87.4453 64.0266 87.392 64.6893 87.2498 64.8422C87.1076 65.0121 86.6277 65.0801 85.668 65.0801C83.8195 65.0801 83.5529 65.284 82.9131 67.2381C82.6465 68.0707 82.0777 69.3961 81.6334 70.2117C80.9047 71.5541 80.8513 71.724 81.0291 72.2508C81.1357 72.5736 81.6334 73.2023 82.1133 73.6611C82.6109 74.1199 83.0019 74.5787 83.0019 74.6807C83.0019 74.9016 80.4781 77.3145 80.2293 77.3145C80.1404 77.3145 79.625 76.8896 79.0918 76.3799C77.7765 75.1055 77.4566 75.0715 75.5726 76.0061C74.7195 76.4309 73.3332 76.9746 72.4801 77.2125C70.4361 77.8072 70.2051 78.0791 70.2051 79.8633C70.2051 80.7809 70.134 81.2396 69.9562 81.3756C69.7963 81.5115 69.1031 81.5625 67.9656 81.5285L66.206 81.4775L66.1172 79.9992C65.9928 78.1471 65.7084 77.8072 63.9133 77.2975C63.2201 77.0936 61.8515 76.5498 60.874 76.091C59.2566 75.3094 59.0611 75.2584 58.4746 75.4283C58.1369 75.5303 57.4615 75.9891 56.9639 76.4648C56.484 76.9236 56.0041 77.3145 55.8974 77.3145C55.7908 77.3145 55.1332 76.7537 54.4045 76.057C52.9648 74.6807 52.9293 74.4938 54.0135 73.7631C54.6533 73.3213 55.2754 72.3867 55.2754 71.877C55.2754 71.6561 54.9199 70.8234 54.4933 70.0248C54.0668 69.2262 53.5336 67.9857 53.3203 67.2891C52.7338 65.4369 52.4316 65.182 50.5121 65.0801L48.9658 64.9951L48.9125 63.075L48.8592 61.1719H50.1566C51.0275 61.1719 51.6496 61.0699 52.0762 60.866C52.6449 60.6111 52.7515 60.4242 53.3203 58.793C53.6758 57.8074 54.2623 56.482 54.6178 55.8363C54.9732 55.1906 55.2754 54.5109 55.2754 54.341C55.2754 53.8313 54.831 53.1516 53.9601 52.3359C53.5158 51.9281 53.1426 51.5033 53.1426 51.4184C53.1426 51.1295 55.5064 48.9375 55.8086 48.9375C55.9685 48.9375 56.4129 49.2434 56.7861 49.6342C57.6037 50.4328 58.2791 50.8066 58.9012 50.8066C59.1322 50.8066 60.0209 50.4668 60.8385 50.059C61.6738 49.6342 62.9357 49.1244 63.6644 48.9375C64.5531 48.6826 65.1219 48.4107 65.4596 48.0709C65.9039 47.6121 65.9394 47.4592 65.9394 46.2527C65.9394 45.5221 65.9928 44.8594 66.0639 44.8084C66.1172 44.7404 67.0414 44.6895 68.1078 44.6895H70.0273V45.9129Z" fill="#E70082"/>
<path d="M15.1074 9.60059C14.0055 9.88945 12.5125 10.807 11.9615 11.5207C10.9662 12.8121 10.7529 13.4408 10.7529 15.123C10.7529 16.4654 10.824 16.8732 11.1617 17.5189C11.8193 18.7934 12.708 19.643 13.9877 20.2547C15.0363 20.7475 15.3563 20.8154 16.6182 20.8154C17.809 20.8154 18.2178 20.7305 19.1064 20.3396C20.475 19.7279 21.7191 18.4705 22.2168 17.1961C22.75 15.8707 22.6611 13.8656 22.0391 12.6592C20.7949 10.2123 17.7912 8.90391 15.1074 9.60059ZM18.1645 13.3729C19.2486 14.3074 19.2842 15.8537 18.2533 16.7713C17.4357 17.485 16.5826 17.6379 15.6939 17.2301C14.041 16.4484 13.7389 14.5283 15.0896 13.3559C15.8184 12.7102 17.418 12.7271 18.1645 13.3729Z" fill="#E70082"/>
<path d="M30.7303 9.5668C27.6554 10.3994 25.7715 13.1861 26.3224 16.0918C26.6957 18.0289 27.9043 19.5072 29.8416 20.3738C31.2457 21.0025 33.2363 21.0025 34.676 20.3568C35.9556 19.7961 37.0576 18.7596 37.6619 17.5191C38.0529 16.7205 38.124 16.3297 38.124 15.1232C38.124 13.8828 38.0529 13.543 37.6263 12.7104C36.3822 10.2805 33.3074 8.87012 30.7303 9.5668ZM33.7695 13.407C34.8359 14.1547 34.8892 15.7859 33.8762 16.7545C33.0941 17.5022 32.241 17.6381 31.2457 17.1793C30.2859 16.7375 29.8594 16.0748 29.8594 15.0553C29.8594 14.4096 29.966 14.1717 30.4459 13.6619C31.3523 12.7104 32.6676 12.6084 33.7695 13.407Z" fill="#E70082"/>
<path d="M52.0228 9.53262C48.3793 10.3482 46.3176 14.2225 47.7928 17.434C48.2904 18.4875 49.6412 19.7959 50.8142 20.3396L51.8096 20.8154H61.2295C70.6494 20.8154 70.6494 20.8154 71.5203 20.4246C72.8711 19.8469 73.8131 18.9973 74.4707 17.8248C75.9103 15.225 75.1105 12.0984 72.5512 10.4162C70.9871 9.37969 70.525 9.3457 61.1406 9.3627C56.5017 9.37969 52.3961 9.44766 52.0228 9.53262ZM70.5428 13.2369C71.6269 13.9846 71.9291 15.327 71.2182 16.3295C70.4006 17.5189 70.5072 17.502 61.4783 17.502C57.0172 17.502 53.107 17.451 52.7871 17.4C52.0228 17.2471 51.0808 16.3295 50.9387 15.5648C50.7787 14.8002 51.3119 13.5428 51.9162 13.2369C52.7871 12.7951 53.498 12.7611 61.5849 12.7951L69.9385 12.8291L70.5428 13.2369Z" fill="#E70082"/>
<path d="M65.4062 52.9476C62.4203 53.6953 59.6299 55.8533 58.3324 58.4701C57.4082 60.2882 57.1594 61.5627 57.266 63.7716C57.3371 65.148 57.4615 65.7427 57.8525 66.6943C59.15 69.8039 61.4427 71.9109 64.7308 73.0154C66.4015 73.5931 69.3164 73.6611 71.0049 73.1683C74.7017 72.1148 77.5633 69.3791 78.6652 65.8447C79.1451 64.2984 79.1095 61.7666 78.5941 60.1523C77.4566 56.6349 74.2929 53.7462 70.7027 52.9306C69.2986 52.6248 66.6859 52.6248 65.4062 52.9476ZM71.1648 56.7199C75.7504 58.7759 76.8523 64.3834 73.3865 67.8837C69.8674 71.4521 63.8244 70.5685 61.5494 66.1505C60.9984 65.08 60.8918 64.6722 60.8207 63.4828C60.7318 61.7326 61.0517 60.5771 62.0115 59.2007C62.8824 57.9433 64.2332 56.9578 65.7439 56.448C67.4324 55.8873 69.5297 55.9892 71.1648 56.7199Z" fill="#E70082"/>
<path d="M28.1353 37.8924C27.922 37.9774 27.6199 38.2323 27.4599 38.4532C27.1222 38.9459 23.6209 52.7776 23.5853 53.7461C23.5676 54.2899 23.6564 54.4938 24.1363 54.9016C25.1494 55.7682 26.5713 55.4114 26.9978 54.1539C27.4066 52.9475 30.5881 39.9825 30.6058 39.4897C30.6058 38.776 30.3215 38.2832 29.6816 37.9774C29.1129 37.6885 28.7219 37.6715 28.1353 37.8924Z" fill="#E70082"/>
<path d="M16.2449 39.3029C15.4984 39.7107 10.4863 45.2672 10.2731 45.9129C9.91759 47.0514 10.2375 47.5951 13.0813 50.6537C14.5031 52.183 15.8361 53.5764 16.0317 53.7293C16.2449 53.9162 16.6893 54.0352 17.1336 54.0352C18.1645 54.0352 18.8399 53.3725 18.8399 52.3869C18.8399 51.7412 18.6977 51.5373 16.5293 49.1924C15.2674 47.833 14.2188 46.6436 14.2188 46.5756C14.2188 46.5076 14.6809 45.9639 15.2496 45.3521C18.9643 41.342 18.8399 41.4949 18.8399 40.7643C18.8399 39.4729 17.4002 38.6572 16.2449 39.3029Z" fill="#E70082"/>
<path d="M35.9379 39.5068C35.3158 40.0166 35.1381 40.6793 35.458 41.376C35.5824 41.6479 36.6666 42.9223 37.8396 44.1797C39.0127 45.4371 39.9902 46.5246 39.9902 46.5756C39.9902 46.6436 38.9771 47.765 37.7508 49.0904C35.0848 51.9621 34.8004 52.6078 35.849 53.5934C36.1867 53.9332 36.4889 54.0352 37.0398 54.0352C37.4308 54.0352 37.893 53.9332 38.0529 53.8143C38.835 53.2535 43.7404 47.765 43.9182 47.2723C44.2914 46.2018 44.007 45.658 41.9808 43.449C40.9322 42.3105 39.5637 40.8662 38.9238 40.2205C37.9107 39.235 37.6797 39.082 37.1109 39.082C36.6844 39.082 36.2933 39.218 35.9379 39.5068Z" fill="#E70082"/>
<path d="M25.9314 65.335C24.9006 65.8787 24.8473 67.2721 25.8248 68.0707C26.2869 68.4445 26.5002 68.4955 27.0867 68.4276C28.082 68.2916 28.6152 67.6799 28.6152 66.6944C28.6152 66.0826 28.5264 65.8957 28.0643 65.5219C27.46 65.0291 26.6602 64.9612 25.9314 65.335Z" fill="#E70082"/>
</g>
<defs>
<clipPath id="clip0_148_1956">
<rect width="91" height="87" fill="white"/>
</clipPath>
</defs>
</svg>
