<svg width="105" height="100" viewBox="0 0 105 100" fill="none" xmlns="http://www.w3.org/2000/svg">
<g clip-path="url(#clip0_148_1979)">
<path d="M4.81934 8.02734C2.8916 8.45703 0.881836 10.293 0.307617 12.168C-0.164062 13.6523 -0.164062 73.8477 0.307617 75.3125C0.799805 76.8359 1.94824 78.1055 3.56836 78.9062L4.9834 79.5898L21.2461 79.6484C36.0322 79.6875 37.5293 79.7266 37.5293 80.0195C37.5293 80.4297 36.5244 88.2617 36.3809 88.8086C36.2988 89.2578 36.2373 89.2578 33.4687 89.2578C30.3926 89.2578 29.9004 89.3945 29.6543 90.332C29.5107 90.8984 29.9619 91.875 30.4541 92.0703C30.9053 92.2266 74.0947 92.2266 74.5459 92.0703C75.0381 91.875 75.4893 90.8984 75.3457 90.332C75.0996 89.3945 74.6074 89.2578 71.5312 89.2578C68.7627 89.2578 68.7012 89.2578 68.6191 88.8281C68.4756 88.2617 67.4707 80.4297 67.4707 80.0195C67.4707 79.7266 68.9678 79.6875 83.7539 79.6484L100.017 79.5898L101.432 78.9062C102.437 78.418 103.052 77.9492 103.585 77.2656C105.103 75.3516 105 77.8516 105 43.7695C105 16.7383 104.959 13.0469 104.692 12.1484C104.241 10.7227 102.888 9.21875 101.411 8.49609L100.201 7.91016L52.9307 7.87109C24.3018 7.87109 5.31152 7.92969 4.81934 8.02734ZM100.099 11.1914C100.734 11.5039 101.145 11.8945 101.473 12.5L101.924 13.3594V43.7305C101.924 74.043 101.924 74.1016 101.493 74.9219C101.247 75.4297 100.755 75.957 100.324 76.2109L99.5654 76.6602H52.5H5.43457L4.67578 76.2109C4.24512 75.957 3.75293 75.4297 3.50684 74.9219C3.07617 74.1016 3.07617 74.043 3.07617 43.7305V13.3594L3.54785 12.5C3.85547 11.8945 4.26562 11.5039 4.90137 11.1914L5.80371 10.7422H52.5H99.1963L100.099 11.1914ZM46.7578 81.0547C47.3936 83.3984 48.1934 84.4531 50.1211 85.3906C51.3311 85.9961 53.6894 85.9961 54.9609 85.3711C56.7861 84.4727 57.6269 83.3789 58.2422 81.0547L58.5703 79.7852L61.4414 79.7266L64.3125 79.668L64.9277 84.4727L65.543 89.2578H52.5H39.457L40.0723 84.4727L40.6875 79.668L43.5586 79.7266L46.4297 79.7852L46.7578 81.0547ZM55.2891 80.3125C54.9609 81.875 53.792 83.0078 52.5 83.0078C51.208 83.0078 50.0391 81.875 49.7109 80.3125L49.5879 79.6875H52.5H55.4326L55.2891 80.3125Z" />
<path d="M7.0752 14.5508L6.5625 15.0196V43.75C6.5625 72.0703 6.5625 72.461 6.97266 72.8516C7.52637 73.3789 8.12109 73.4961 10.2744 73.418C11.9355 73.3399 12.1816 73.3008 12.5303 72.8711C13.0635 72.2461 13.0225 71.4453 12.4482 70.9375C12.0791 70.6055 11.71 70.5078 10.8076 70.5078H9.63867V43.75V16.9922H48.6035H87.5889L88.1221 16.4844C88.5322 16.0938 88.6143 15.8789 88.5117 15.3711C88.4502 15.0196 88.1836 14.5899 87.958 14.3946C87.5479 14.0821 85.3125 14.0625 47.5371 14.0625H7.56738L7.0752 14.5508Z" />
<path d="M92.5928 14.5505C91.9365 15.156 91.916 15.9959 92.5518 16.5623C92.9209 16.8943 93.29 16.992 94.1924 16.992H95.3613V43.7498V70.5076H56.3145H17.2471L16.8369 71.0154C16.5908 71.3084 16.4062 71.6599 16.4062 71.7966C16.4062 72.3044 16.8779 73.0076 17.3701 73.2224C17.7188 73.3787 28.875 73.4373 57.4424 73.4373C99.709 73.4373 97.9453 73.4763 98.3145 72.5584C98.376 72.3826 98.4375 59.3552 98.4375 43.6326V15.0193L97.9248 14.5505C97.4531 14.1013 97.2891 14.0623 95.2588 14.0623C93.2285 14.0623 93.0645 14.1013 92.5928 14.5505Z" />
<path d="M28.7724 23.6721C28.5264 23.7892 28.2187 24.1213 28.0957 24.3947C27.6855 25.3517 28.0957 25.84 30.7002 27.5002L33.1201 29.0432L35.9707 38.5939C37.5293 43.8478 38.9853 48.4377 39.1904 48.7892L39.5801 49.4338L38.4111 51.6213C37.0371 54.2189 36.914 55.1564 37.7754 56.3869C38.2881 57.1486 38.3086 57.1877 38.0215 58.2228C37.7959 59.0432 37.7754 59.5119 37.9394 60.2932C38.8623 64.4924 44.6865 65.3127 46.8398 61.5432C47.3525 60.6252 47.414 60.3517 47.332 59.1603L47.25 57.8127H54.1406H61.0312L60.9492 59.0822C60.8672 60.1564 60.9492 60.508 61.4004 61.426C63.3281 65.176 69.0293 64.6486 70.2598 60.6057C70.5674 59.59 70.5879 59.3557 70.3213 58.3986C70.0752 57.5197 70.0752 57.2267 70.2803 56.8361C70.5674 56.2892 70.4648 55.7424 69.9726 55.215C69.6855 54.9025 68.7012 54.883 55.0224 54.883C45.2197 54.883 40.4004 54.8244 40.4004 54.6877C40.4004 54.5705 40.8105 53.7111 41.3027 52.7736L42.2051 51.0549L43.0049 51.133C44.2353 51.2307 65.9941 48.6916 67.1631 48.3205C68.5781 47.8517 70.3623 46.1525 70.8135 44.8244C70.998 44.2775 71.7568 40.9572 72.4951 37.4221C73.7256 31.4455 73.8076 30.9572 73.5 30.5275C73.3359 30.2736 72.9873 29.9807 72.7412 29.883C72.4951 29.7853 64.6816 29.3947 55.3711 29.0041C36.6269 28.2424 35.8887 28.2033 35.8887 27.8713C35.8682 27.7346 35.7041 27.4611 35.5195 27.2267C35.0068 26.6603 29.9004 23.4377 29.5312 23.4572C29.3672 23.4572 29.0185 23.5549 28.7724 23.6721ZM43.0049 31.5236C43.1074 31.6213 44.0713 36.8166 44.0918 37.3439C44.0918 37.4416 42.9023 37.5002 41.4668 37.5002H38.8418L37.8984 34.3557L36.9551 31.1916L39.9287 31.3088C41.5488 31.3674 42.9433 31.465 43.0049 31.5236ZM51.0234 31.7775L52.7051 31.8947V34.6877V37.5002H49.9775H47.25L46.7988 34.8049C46.5527 33.34 46.3476 32.0119 46.3476 31.8752C46.3476 31.6017 48.2139 31.5627 51.0234 31.7775ZM61.667 32.2853C61.6875 32.3244 61.626 33.5158 61.4824 34.9221L61.2568 37.5002H58.5088H55.7812V34.7267V31.9728L58.6933 32.09C60.2724 32.1682 61.626 32.2463 61.667 32.2853ZM70.2803 32.676C70.3418 32.7346 69.7881 35.5861 69.4189 37.051C69.3164 37.4807 69.2344 37.5002 66.8349 37.5002H64.333L64.4766 35.8791C64.5586 35.0002 64.6816 33.8478 64.7432 33.3205L64.8662 32.3635L67.5322 32.4807C68.9883 32.5588 70.2187 32.6369 70.2803 32.676ZM44.584 40.5861C44.707 40.801 45.9785 47.8908 45.8965 47.9494C45.8555 47.9885 45.1787 48.0666 44.3789 48.1447C42.2051 48.34 42.0615 48.1838 40.8105 44.0432C40.2568 42.2072 39.7851 40.6642 39.7851 40.5666C39.7851 40.3713 44.4609 40.3908 44.584 40.5861ZM52.6025 43.8478V47.1682L50.8594 47.4025C49.916 47.5392 49.0957 47.6174 49.0547 47.5783C48.9932 47.5197 47.7832 40.8791 47.7832 40.5666C47.7832 40.4885 48.8701 40.4494 50.2031 40.4689L52.6025 40.5275V43.8478ZM60.8262 41.6408C60.7646 42.3244 60.6416 43.633 60.5801 44.5705C60.416 46.4846 60.5185 46.3869 58.5498 46.5627C57.873 46.6408 56.9707 46.7385 56.5605 46.7971L55.7812 46.9142V43.6721V40.4299H58.3652H60.9697L60.8262 41.6408ZM68.6396 40.8596C68.5781 41.1135 68.4141 41.8557 68.2705 42.5392C67.8398 44.6682 66.8144 45.6447 64.7021 45.84C63.6767 45.9377 63.5742 45.9182 63.5742 45.5666C63.5742 44.9416 64.0049 40.9377 64.0869 40.6642C64.1484 40.4885 64.8252 40.4299 66.4658 40.4299C68.7217 40.4299 68.7422 40.4299 68.6396 40.8596ZM43.8252 58.2424C44.748 59.0627 44.2969 60.5666 43.0254 60.9963C42.3691 61.2111 41.4053 60.7228 41.0976 60.0392C40.4004 58.4377 42.4922 57.051 43.8252 58.2424ZM66.7119 58.0861C67.3271 58.5353 67.5527 59.4533 67.1836 60.1174C66.8555 60.7424 65.8506 61.1916 65.2558 60.9963C63.3691 60.3713 63.6562 57.7932 65.6045 57.8127C66.0146 57.8127 66.5068 57.9494 66.7119 58.0861Z" />
</g>
</svg>
