<svg width="93" height="89" viewBox="0 0 93 89" fill="none" xmlns="http://www.w3.org/2000/svg">
<path d="M4.26855 1.77315C2.59746 2.36417 1.27148 3.5462 0.490428 5.1628L0.0908189 5.99717L0.0363267 35.0265C-1.42865e-06 56.4421 0.0363267 64.2991 0.181639 65.0118C0.308788 65.5333 0.581249 66.2808 0.817381 66.6806C1.38047 67.6019 2.72461 68.7839 3.77812 69.2358C4.63183 69.6183 4.66816 69.6183 20.8342 69.6704L37.0547 69.7226V70.2962C37.0547 71.4261 36.5098 73.5642 35.9467 74.781C35.5289 75.6327 35.0566 76.2411 34.3119 76.9017C32.8406 78.2228 32.1504 78.414 28.4268 78.553C25.9201 78.6573 25.1936 78.7442 24.5215 79.0397C23.5043 79.4569 22.5779 80.3435 22.142 81.2647C21.6879 82.2034 21.6879 83.9765 22.142 84.9151C22.5598 85.8017 23.9947 87.0185 24.8666 87.2618C25.7566 87.5052 67.2434 87.5052 68.1334 87.2618C69.0053 87.0185 70.4402 85.8017 70.858 84.9151C71.3121 83.9765 71.3121 82.2034 70.858 81.2647C70.4221 80.3435 69.4957 79.4569 68.4785 79.0397C67.8064 78.7442 67.0799 78.6573 64.5732 78.553C60.8496 78.414 60.1594 78.2228 58.6881 76.9017C57.9434 76.2411 57.4893 75.6501 57.0715 74.7983C56.4902 73.5815 55.9453 71.4087 55.9453 70.331V69.7226L72.1658 69.6704C88.3318 69.6183 88.3682 69.6183 89.2219 69.2358C90.2754 68.7839 91.6195 67.6019 92.1826 66.6806C92.4187 66.2808 92.6912 65.5333 92.8184 65.0118C92.9637 64.2991 93 56.4421 92.9637 35.0265L92.9092 5.99717L92.4187 5.00635C91.8375 3.80694 90.675 2.67706 89.458 2.08604L88.5498 1.65147L46.6816 1.6167C16.8563 1.59932 4.65 1.65147 4.26855 1.77315ZM88.2228 4.81514C88.568 4.97159 89.0766 5.40616 89.3309 5.78857L89.8213 6.50127V30.6634V54.8429L88.3318 54.895L86.8242 54.9472V31.8106C86.8242 7.90928 86.8424 8.22217 86.1158 7.70068C85.698 7.38779 7.30195 7.38779 6.88418 7.70068C6.15762 8.22217 6.17578 7.90928 6.17578 31.8106V54.9472L4.68633 54.895L3.17871 54.8429V30.6634V6.50127L3.65098 5.80596C4.63183 4.39795 0.454102 4.51963 46.4637 4.51963C84.3721 4.51963 87.6416 4.53702 88.2228 4.81514ZM83.7363 32.5929V54.756H46.5H9.26367V32.5929V10.4298H46.5H83.7363V32.5929ZM89.9121 61.1007C89.9121 64.6294 89.8213 65.0813 88.8949 65.9157C88.6043 66.1765 88.132 66.472 87.8596 66.5589C87.4963 66.698 74.9086 66.7501 46.4818 66.7501C1.99805 66.7501 4.97695 66.8196 3.95976 65.7767C3.17871 64.9597 3.08789 64.4903 3.08789 61.0833V57.8849H46.5H89.9121V61.1007ZM52.7484 70.0876C52.7848 70.3136 52.9119 71.1306 53.0391 71.9128C53.366 74.2247 54.5285 77.0233 55.6365 78.1706L55.9998 78.5704H46.5H37.0002L37.3635 78.1706C38.4715 77.0233 39.634 74.2247 39.9609 71.9128C40.0881 71.1306 40.2152 70.3136 40.2516 70.0876L40.3242 69.7052H46.5H52.6758L52.7484 70.0876ZM67.6793 82.0644C68.2424 82.5685 68.2606 83.5245 67.7156 84.0808L67.3342 84.4806H46.5182H25.7203L25.3025 84.0981C24.5215 83.4028 24.9029 81.9774 25.9201 81.6819C26.0473 81.6472 35.4018 81.6298 46.6998 81.6472L67.2434 81.6646L67.6793 82.0644Z" />
<path d="M20.6162 13.8195L20.1621 14.2367V28.8382V43.4398L20.598 43.9265L21.034 44.4132L39.2525 44.5001L57.4711 44.5871L58.2703 47.1076C59.124 49.8541 59.5055 50.4103 60.5227 50.4103C60.9586 50.4103 61.34 50.1496 62.4117 49.1587L63.774 47.9072L65.7176 49.7671C67.6793 51.6445 68.2061 51.9748 68.9326 51.8357C69.1687 51.8009 70.4947 50.6537 71.9115 49.2978C75.2174 46.0994 75.1992 46.3775 72.3838 43.6484L70.3131 41.632L71.5664 40.3978C72.5836 39.407 72.8379 39.0419 72.8379 38.6248C72.8379 37.6513 72.2566 37.2863 69.3867 36.4693L66.7529 35.7044L66.6984 24.9966L66.6621 14.3062L66.208 13.8369L65.7721 13.3849H43.4121H21.0521L20.6162 13.8195ZM63.5742 18.5128V20.6857H43.4121H23.25V18.5128V16.34H43.4121H63.5742V18.5128ZM63.5742 29.3076C63.5742 33.6359 63.5197 34.7832 63.3562 34.7136C62.1029 34.2617 56.1996 32.6798 55.7455 32.6798C54.9281 32.6798 54.3105 33.2709 54.3105 34.0183C54.3105 34.4703 55.9635 40.1023 56.4357 41.3191C56.5084 41.4929 53.1299 41.5451 39.8883 41.5451H23.25V32.6798V23.8146H43.4121H63.5742V29.3076ZM64.8457 38.2771C66.5895 38.7638 68.0971 39.1984 68.1697 39.2332C68.2424 39.2853 67.9881 39.6503 67.6066 40.0501C66.1898 41.5277 66.317 41.9449 68.8055 44.3611L70.7309 46.2384L69.6592 47.2814L68.5875 48.3244L66.6621 46.5166C64.1736 44.1699 63.4834 44.0308 61.9213 45.491C61.558 45.8212 61.2129 46.0298 61.1584 45.9429C61.1221 45.8734 60.668 44.4306 60.1594 42.7619C59.6508 41.0931 58.9969 38.9724 58.7062 38.0511L58.1795 36.3824L59.9232 36.8865C60.8859 37.1646 63.102 37.7904 64.8457 38.2771Z" />
<path d="M26.9191 30.0725C26.3379 30.594 26.3016 30.8895 26.3742 34.4704C26.4287 37.5819 26.4469 37.721 26.8465 38.1034C27.2461 38.5032 27.2643 38.5032 33.7488 38.5553C37.309 38.5901 40.415 38.5553 40.633 38.5032C40.851 38.451 41.2143 38.2425 41.4141 38.0339C41.7592 37.6862 41.7773 37.4255 41.7773 34.1227C41.7773 30.594 41.7773 30.5766 41.3232 30.1594L40.8873 29.7249H34.0939C27.5367 29.7249 27.3006 29.7423 26.9191 30.0725ZM38.6894 34.1575V35.635H34.0576H29.4258V34.1575V32.68H34.0576H38.6894V34.1575Z" />
<path d="M40.7965 61.2918C40.1607 61.9176 40.1789 62.6303 40.851 63.2908L41.3777 63.7949H46.5H51.6223L52.149 63.2908C52.8211 62.6303 52.8393 61.9176 52.2035 61.2918L51.7131 60.8398H46.5H41.2869L40.7965 61.2918Z" />
</svg>
