<svg width="99" height="146" viewBox="0 0 99 146" fill="none" xmlns="http://www.w3.org/2000/svg">
<path d="M47.2885 0.909302C46.2367 2.16016 46.521 2.92773 48.71 4.91774C52.1214 7.98803 55.277 12.764 56.3288 16.3745L56.7553 17.8243L51.1832 17.9949C48.1414 18.1086 44.5025 18.1939 43.1095 18.1939H40.6078L40.7784 17.3979C41.1195 16.0333 42.0292 13.8443 43.0527 12.0249C44.2182 9.94961 44.2467 9.58004 43.3085 8.67032C42.3135 7.64689 40.8352 7.70375 40.0961 8.72718C39.0158 10.2623 37.4806 13.6453 36.7415 16.1186C36.0308 18.4498 35.9739 19.1036 35.8318 25.2158C35.7181 31.2711 35.6612 31.8396 35.2064 31.9818C34.3251 32.2661 32.4204 34.5688 32.1076 35.7059C31.9086 36.3598 31.7949 39.885 31.7949 44.3767C31.7949 52.5073 31.7949 52.422 33.3016 52.9621C34.4104 53.3601 35.8886 52.024 39.0442 47.6744L39.6412 46.8784L41.1195 47.845C45.9524 51.1143 51.9508 50.9721 56.471 47.5323C57.0111 47.1343 57.4944 46.9353 57.6365 47.0774C57.7503 47.2195 58.461 48.1577 59.2285 49.1811C61.446 52.1661 62.2136 52.8768 63.2086 52.8768C63.7771 52.8768 64.3457 52.621 64.7437 52.1945C65.3691 51.5407 65.3691 51.4554 65.2838 43.6091C65.1986 34.6257 65.0849 34.1992 62.8674 32.5504L61.7303 31.6975L61.5597 25.3011C61.4176 18.4213 61.1901 17.142 59.6266 13.0768C57.6365 7.87432 51.0411 -0.000411987 48.6815 -0.000411987C48.312 -0.000411987 47.7434 0.36916 47.2885 0.909302ZM57.3238 26.7794L57.4091 31.2426L56.1867 31.7828C53.9408 32.7778 52.2635 35.2511 52.2635 37.6107C52.2635 38.6057 52.889 40.084 54.0261 41.9034L54.9358 43.2964L54.083 43.9502C52.3773 45.3432 50.8137 45.8834 48.5678 45.8834C46.8052 45.9118 46.1514 45.7697 44.8437 45.1158C43.9624 44.6894 43.0527 44.1208 42.7968 43.8365C42.3419 43.3532 42.3988 43.1827 43.6212 41.0505C44.8152 38.9752 44.9005 38.6909 44.8152 37.1842C44.6447 34.9099 43.4791 33.0905 41.5459 32.1239L40.0677 31.4132V26.9499L40.0392 22.4866L42.8252 22.3729C44.3319 22.3445 48.1982 22.2876 51.4107 22.2876L57.2385 22.3161L57.3238 26.7794ZM60.8206 36.4167C60.9627 36.7294 61.048 38.5772 61.0196 40.7094L60.9343 44.4904L58.8874 41.4485C57.7787 39.7997 56.7837 38.1508 56.67 37.8097C56.4141 37.0137 57.2954 35.7628 58.262 35.5069C59.1717 35.3079 60.451 35.7344 60.8206 36.4167ZM39.9539 36.1608C40.3235 36.5019 40.6078 37.0421 40.6078 37.3832C40.6078 37.9234 38.1914 41.8181 36.6278 43.7797L36.0592 44.4904V40.7094C36.0592 37.0705 36.0876 36.8999 36.7699 36.2461C37.6512 35.3364 39.0442 35.3079 39.9539 36.1608Z" fill="#E70082"/>
<path d="M71.3958 0.340741C70.7135 0.653456 70.1734 2.07489 70.1734 3.46789C70.1734 4.20703 70.0881 4.26389 69.0078 4.26389C67.8422 4.26389 66.7904 4.66189 66.4208 5.23046C66.3071 5.40104 66.1934 5.99804 66.1934 6.56661C66.1934 7.98804 66.8756 8.52819 68.6667 8.52819H70.0881L70.2587 10.1486C70.4577 11.9965 71.1115 12.7925 72.4192 12.7925C73.8407 12.7925 74.4092 12.1102 74.4945 10.2908L74.5798 8.67033L76.1434 8.58504C78.0765 8.47133 78.702 7.95961 78.702 6.50975C78.702 5.03146 77.707 4.26389 75.8307 4.26389H74.4377V2.75717C74.4377 1.10831 74.2955 0.795599 73.3858 0.312312C72.6467 -0.0572596 72.2202 -0.0572596 71.3958 0.340741Z" fill="#E70082"/>
<path d="M16.0171 10.8597C15.1643 11.343 15.0221 11.6557 15.0221 13.2761V14.7828H13.7144C11.6107 14.7828 10.7578 15.4083 10.7578 16.9718C10.7578 18.4217 11.5822 19.0471 13.4585 19.0471H15.0221V20.7244C15.0221 22.1743 15.1074 22.487 15.6475 22.8566C16.5004 23.4536 17.666 23.4251 18.4051 22.7997C18.86 22.4586 19.0874 21.89 19.2011 20.6676L19.3717 19.0471H20.7078C22.8116 19.0471 23.6644 18.0237 23.1811 16.119C22.9253 15.2093 22.044 14.7828 20.3951 14.7828C19.3148 14.7828 19.2864 14.7544 19.2864 13.8163C19.2864 12.3948 18.7747 11.2008 17.9787 10.8313C17.0974 10.4333 16.7563 10.4333 16.0171 10.8597Z" fill="#E70082"/>
<path d="M85.8089 16.4312C85.2972 16.8292 85.1266 17.341 85.0129 18.5634L84.8992 20.1838H83.5346C81.7152 20.1838 80.8623 20.8661 80.8623 22.316C80.8623 23.7658 81.7152 24.4481 83.5346 24.4481H84.8992L85.0129 26.0685C85.1835 27.888 85.8657 28.7124 87.2587 28.7124C88.5949 28.7124 89.2203 27.8311 89.2203 26.0117V24.4481H90.7839C92.6886 24.4481 93.4846 23.8227 93.4846 22.3444C93.4846 20.9798 92.4328 20.1838 90.6133 20.1838H89.2203V18.6771C89.2203 17.0282 89.0782 16.7155 88.1685 16.2322C87.2872 15.7774 86.548 15.8342 85.8089 16.4312Z" fill="#E70082"/>
<path d="M79.8107 34.5404C76.9678 35.4501 76.8257 35.706 68.6382 52.4504L61.1046 67.8019L57.9775 67.8872L54.8219 67.9725V61.178C54.8219 54.7247 54.7935 54.3267 54.2249 53.616C53.4858 52.6779 51.979 52.5926 51.1262 53.4454C50.586 53.9856 50.5576 54.3836 50.5576 60.979V67.944H48.7098H46.8619V61.1496C46.8619 54.7247 46.8335 54.3267 46.2649 53.616C45.4973 52.6494 44.0759 52.5926 43.223 53.5307C42.626 54.1846 42.5976 54.412 42.5976 61.0643V67.9725L38.1343 67.8872L33.6426 67.8019L30.5154 58.5626L27.3599 49.3233L18.8597 42.1308C14.169 38.1793 10.0468 34.8815 9.67725 34.7678C8.79596 34.5404 7.68724 35.0805 7.37453 35.8765C6.97653 36.9 2.79752 57.198 2.79752 58.0509C2.79752 58.4489 3.50823 60.8084 4.36109 63.2533C5.21395 65.7266 5.92467 67.7735 5.92467 67.8303C5.92467 67.8872 5.32767 67.944 4.61695 67.944C3.90623 67.944 3.0818 68.0862 2.79752 68.2283C1.00651 69.1949 -0.585489 83.8072 0.210513 92.1084C0.8928 99.045 2.37109 104.617 4.95809 109.876C6.66381 113.345 9.44982 117.381 10.3311 117.723C11.184 118.007 12.6907 117.268 13.0318 116.415C13.373 115.505 13.1171 114.823 11.6104 112.861C9.98996 110.701 7.23238 105.015 6.3511 101.916C4.84438 96.6854 4.41795 93.3308 4.38952 86.5648C4.36109 80.7085 4.61695 77.6098 5.38452 73.6866L5.66881 72.2083H29.5489H53.4289L53.2583 73.2602C52.4055 78.2068 50.8419 81.6751 47.8853 85.1434L46.9188 86.2805L46.0943 85.6551C43.7063 83.7788 40.3802 82.4426 38.1343 82.4426C32.477 82.4426 27.303 86.9344 26.3649 92.6485C25.5688 97.6804 28.6107 103.167 33.3014 105.214C34.1827 105.584 34.9219 106.038 34.9219 106.209C34.9219 106.408 34.1259 107.744 33.1877 109.194C30.1174 113.885 24.4317 118.973 19.94 121.02C17.4667 122.157 17.5804 121.504 17.5804 133.557V144.161L18.2911 144.843L18.9734 145.554H36.4286C53.2015 145.554 53.9406 145.526 54.5661 145.014C55.2199 144.474 55.2483 144.332 55.3336 139.215L55.4189 133.955L60.7351 133.813C67.2168 133.643 70.0881 133.017 74.8641 130.629C78.6167 128.781 80.9478 127.076 83.9897 123.892C88.5098 119.172 91.438 113.345 92.3477 107.289C92.831 103.935 92.9447 103.679 93.9113 103.48C96.8963 102.854 99 100.182 99 97.0834C98.9716 95.5198 98.801 95.0081 96.7257 90.9712C93.2858 84.3189 91.6938 78.8606 91.3243 72.5495C91.0968 68.9959 90.642 67.944 89.3343 67.944C88.9647 67.944 88.652 67.8872 88.652 67.8587C88.652 67.8019 90.841 63.2817 93.5417 57.8234L98.4314 47.9018V45.9118C98.4314 43.6376 97.8629 42.2445 96.2709 40.7378C95.7307 40.2261 92.8878 38.6341 89.7038 37.099C83.5064 34.0855 82.2555 33.7728 79.8107 34.5404ZM87.657 40.8231C90.4714 42.1877 93.0584 43.5523 93.3996 43.865C94.5083 44.86 94.5083 46.054 93.4848 48.2998C92.9731 49.4086 92.4614 50.3183 92.3761 50.3183C92.2908 50.3183 91.1821 49.8919 89.9597 49.3517C88.7373 48.8116 87.5148 48.442 87.259 48.5273C85.866 49.039 85.2121 50.5173 85.9513 51.626C86.1787 51.9956 87.2874 52.7631 88.3677 53.3033C89.4764 53.8434 90.3577 54.3551 90.3577 54.412C90.3577 54.5257 87.458 60.6379 87.3158 60.8084C87.259 60.8937 85.6954 60.183 83.8191 59.2733C80.692 57.7666 80.3508 57.6529 79.6117 57.9656C78.7588 58.3352 78.1334 59.3017 78.1334 60.2683C78.1334 61.0643 79.4411 62.0024 82.483 63.3954C84.0181 64.1062 85.2405 64.76 85.2405 64.9022C85.2405 65.0159 84.9278 65.755 84.5298 66.5226L83.8191 67.944H74.8357C69.5479 67.944 65.9091 67.8303 65.9659 67.6882C66.0228 67.546 69.1215 61.1212 72.8741 53.417C79.9812 38.8615 80.2655 38.3783 81.9713 38.3783C82.284 38.3783 84.8425 39.487 87.657 40.8231ZM18.1774 47.1058C20.338 48.9537 22.129 50.5173 22.129 50.631C22.129 50.7163 20.736 52.1093 19.0018 53.7013L15.9031 56.601L11.7241 56.3167C9.42139 56.1461 7.51667 55.9756 7.48824 55.9472C7.45981 55.8903 7.9431 53.417 8.56853 50.4036L9.70568 44.9737L11.4398 44.4051C12.4064 44.0924 13.4014 43.8081 13.6857 43.8081C13.97 43.7797 15.9884 45.2864 18.1774 47.1058ZM26.9334 61.178L29.2077 67.944H25.5688H21.9016L20.5938 64.0209C19.8831 61.8887 19.2861 59.9272 19.2861 59.6997C19.2861 59.3586 24.4317 54.2414 24.5738 54.412C24.6023 54.412 25.6541 57.4823 26.9334 61.178ZM13.9984 60.8084L15.1071 60.979L16.2158 64.2483C16.8128 66.0393 17.2961 67.6029 17.2961 67.7166C17.2961 67.8587 15.7325 67.9156 13.8278 67.8872L10.388 67.8019L9.27925 64.5326C8.68224 62.7416 8.11367 61.0643 8.05682 60.8084C7.91467 60.382 8.17053 60.3536 10.388 60.4673C11.7525 60.5526 13.4014 60.6947 13.9984 60.8084ZM86.9463 72.5495C86.9463 72.7485 87.1453 74.2552 87.3443 75.9041C88.1971 82.2721 90.244 88.3274 93.5133 94.1268C94.2808 95.4914 94.9063 96.8559 94.9063 97.1687C94.9063 97.5098 94.5936 98.1068 94.224 98.5332C93.6554 99.2155 93.3143 99.3292 91.6654 99.443C89.3627 99.5851 88.652 100.267 88.652 102.229C88.652 102.883 88.5098 104.446 88.3393 105.64C87.259 113.515 82.5398 120.935 75.916 125.228C73.4142 126.82 71.4527 127.701 68.2118 128.696C65.9659 129.378 65.1984 129.435 59.0009 129.606C50.387 129.833 51.1262 129.208 51.1262 136.201V141.29H36.4854H21.8447V133.102V124.887L22.6407 124.545C23.0671 124.346 24.4601 123.494 25.711 122.641C29.691 120.025 33.8416 115.903 36.3717 112.122C38.1912 109.45 40.3233 105.1 40.3233 104.162C40.3233 103.053 39.2999 102.058 38.1912 102.058C35.462 102.058 32.4201 100.097 31.1977 97.5667C30.4017 95.9462 30.3164 93.1034 31.0271 91.4829C31.7663 89.7204 33.6426 87.9294 35.4336 87.2471C38.4186 86.1384 41.432 87.0196 44.1612 89.8056C46.009 91.7104 46.7766 91.7388 48.9372 89.9762C52.4908 87.0765 55.7601 81.6751 56.7835 76.9559C57.0962 75.5061 57.4373 73.8572 57.5226 73.2602L57.6932 72.2083H72.3055C83.8191 72.2083 86.9463 72.2936 86.9463 72.5495Z" fill="#E70082"/>
<path d="M69.8892 79.0024C68.4678 79.4573 67.4159 80.1396 66.3925 81.2767C65.1985 82.5844 64.6015 83.8637 64.3456 85.6263C64.2035 86.6213 64.2603 86.9909 64.772 87.6447C65.9092 89.0946 68.4678 88.4692 68.4678 86.735C68.4678 84.8303 70.2303 83.0109 72.1066 83.0109C73.8408 83.0109 75.5749 84.5744 75.5749 86.138C75.5749 86.8203 76.0582 87.8722 76.5415 88.1849C76.7121 88.2986 77.3375 88.4123 77.9061 88.4123C81.4881 88.4123 79.8108 81.76 75.7171 79.6279C74.2103 78.8603 71.3106 78.5476 69.8892 79.0024Z" fill="#E70082"/>
<path d="M36.2012 92.8189C35.3484 93.6717 35.2915 94.6383 36.0875 95.6333C37.2815 97.14 39.4705 96.2303 39.4705 94.2403C39.4705 92.2787 37.5374 91.4543 36.2012 92.8189Z" fill="#E70082"/>
</svg>
