<svg width="112" height="152" viewBox="0 0 112 152" fill="none" xmlns="http://www.w3.org/2000/svg">
<path d="M53.4978 1.49795C52.3079 2.79561 52.6295 3.5919 55.1059 5.65635C58.9653 8.84151 62.5353 13.7962 63.7253 17.5417L64.2077 19.0458L57.904 19.2228C54.4627 19.3407 50.346 19.4292 48.7701 19.4292H45.9398L46.1328 18.6034C46.5188 17.1878 47.5479 14.9169 48.7058 13.0294C50.0244 10.8765 50.0565 10.4931 48.9952 9.54933C47.8695 8.48761 46.1971 8.54659 45.3609 9.60831C44.1388 11.2009 42.4021 14.7105 41.5659 17.2763C40.7618 19.6946 40.6975 20.373 40.5367 26.7138C40.408 32.9956 40.3437 33.5855 39.8291 33.7329C38.8321 34.0279 36.6773 36.4167 36.3235 37.5964C36.0984 38.2747 35.9697 41.9318 35.9697 46.5915C35.9697 55.0263 35.9697 54.9378 37.6743 55.4982C38.9286 55.9111 40.601 54.525 44.171 50.0126L44.8464 49.1869L46.5188 50.1896C51.9862 53.5812 58.7724 53.4337 63.8861 49.8652C64.4971 49.4523 65.0439 49.2458 65.2047 49.3933C65.3333 49.5408 66.1374 50.514 67.0058 51.5757C69.5144 54.6724 70.3827 55.4097 71.5084 55.4097C72.1516 55.4097 72.7949 55.1443 73.2451 54.7019C73.9527 54.0236 73.9527 53.9351 73.8562 45.7953C73.7597 36.4757 73.6311 36.0333 71.1224 34.3228L69.836 33.438L69.643 26.8023C69.4822 19.6652 69.2249 18.338 67.456 14.1206C65.2047 8.72354 57.7432 0.5542 55.0738 0.5542C54.6557 0.5542 54.0124 0.937599 53.4978 1.49795ZM64.8509 28.3359L64.9474 32.9661L63.5645 33.5265C61.0237 34.5587 59.1261 37.1245 59.1261 39.5724C59.1261 40.6046 59.8337 42.1382 61.1202 44.0257L62.1493 45.4708L61.1845 46.1492C59.2548 47.5943 57.4859 48.1546 54.9451 48.1546C52.9511 48.1841 52.2114 48.0367 50.7319 47.3583C49.7349 46.916 48.7058 46.3261 48.4163 46.0312C47.9017 45.5298 47.966 45.3529 49.349 43.141C50.6998 40.988 50.7963 40.6931 50.6998 39.13C50.5068 36.7706 49.1882 34.8831 47.0012 33.8804L45.3288 33.1431V28.5128L45.2966 23.8825L48.4485 23.7646C50.153 23.7351 54.527 23.6761 58.1613 23.6761L64.7544 23.7056L64.8509 28.3359ZM68.8068 38.3337C68.9676 38.6581 69.0641 40.5751 69.0319 42.7871L68.9355 46.7095L66.6198 43.5539C65.3655 41.8433 64.2398 40.1328 64.1112 39.7788C63.8217 38.9531 64.8188 37.6554 65.9123 37.39C66.9414 37.1835 68.3887 37.6259 68.8068 38.3337ZM45.2001 38.0683C45.6182 38.4222 45.9398 38.9826 45.9398 39.3365C45.9398 39.8968 43.2061 43.9373 41.4372 45.9722L40.794 46.7095V42.7871C40.794 39.0121 40.8261 38.8351 41.598 38.1568C42.595 37.213 44.171 37.1835 45.2001 38.0683Z" fill="#E70082"/>
<path d="M80.7713 0.908091C79.9994 1.23251 79.3884 2.70712 79.3884 4.15224C79.3884 4.91903 79.2919 4.97802 78.0697 4.97802C76.7511 4.97802 75.5611 5.39091 75.143 5.98075C75.0144 6.15771 74.8857 6.77704 74.8857 7.36689C74.8857 8.8415 75.6576 9.40185 77.6838 9.40185H79.2919L79.4849 11.0829C79.71 12.9999 80.4497 13.8257 81.9291 13.8257C83.5372 13.8257 84.1805 13.1179 84.277 11.2304L84.3734 9.54931L86.1423 9.46084C88.3293 9.34287 89.0369 8.81201 89.0369 7.3079C89.0369 5.77431 87.9112 4.97802 85.7886 4.97802H84.2126V3.41493C84.2126 1.70438 84.0518 1.37997 83.0226 0.878599C82.1864 0.4952 81.704 0.4952 80.7713 0.908091Z" fill="#E70082"/>
<path d="M18.1198 11.8205C17.155 12.3219 16.9942 12.6463 16.9942 14.3274V15.8905H15.5147C13.1348 15.8905 12.1699 16.5393 12.1699 18.1614C12.1699 19.6655 13.1026 20.3143 15.2253 20.3143H16.9942V22.0543C16.9942 23.5584 17.0907 23.8828 17.7017 24.2662C18.6666 24.8856 19.9852 24.8561 20.8214 24.2073C21.336 23.8534 21.5933 23.2635 21.7219 21.9953L21.9149 20.3143H23.4265C25.8065 20.3143 26.7713 19.2526 26.2246 17.2766C25.9351 16.3328 24.9381 15.8905 23.0727 15.8905C21.8506 15.8905 21.8184 15.861 21.8184 14.8877C21.8184 13.4131 21.2395 12.1744 20.339 11.791C19.342 11.3781 18.956 11.3781 18.1198 11.8205Z" fill="#E70082"/>
<path d="M97.0766 17.6002C96.4977 18.0131 96.3047 18.5439 96.1761 19.8121L96.0474 21.4932H94.5037C92.4453 21.4932 91.4805 22.201 91.4805 23.7051C91.4805 25.2092 92.4453 25.917 94.5037 25.917H96.0474L96.1761 27.598C96.369 29.4855 97.1409 30.3408 98.7168 30.3408C100.228 30.3408 100.936 29.4266 100.936 27.5391V25.917H102.705C104.86 25.917 105.76 25.2682 105.76 23.7346C105.76 22.3189 104.57 21.4932 102.512 21.4932H100.936V19.9301C100.936 18.2195 100.775 17.8951 99.746 17.3937C98.749 16.9219 97.9128 16.9808 97.0766 17.6002Z" fill="#E70082"/>
<path d="M90.2909 36.3871C87.0747 37.3308 86.9139 37.5963 77.6513 54.9672L69.1285 70.893L65.5907 70.9814L62.0207 71.0699V64.0213C62.0207 57.3266 61.9886 56.9137 61.3454 56.1764C60.5091 55.2031 58.8046 55.1146 57.8397 55.9994C57.2287 56.5598 57.1965 56.9726 57.1965 63.8148V71.0404H55.106H53.0155V63.9918C53.0155 57.3266 52.9833 56.9137 52.3401 56.1764C51.4717 55.1736 49.8636 55.1146 48.8988 56.0879C48.2234 56.7662 48.1912 57.0021 48.1912 63.9033V71.0699L43.1418 70.9814L38.0603 70.893L34.5225 61.308L30.9526 51.723L21.3362 44.2615C16.0295 40.1621 11.3661 36.741 10.948 36.623C9.95098 36.3871 8.69668 36.9474 8.3429 37.7732C7.89264 38.8349 3.16487 59.8924 3.16487 60.7771C3.16487 61.19 3.96891 63.6379 4.93376 66.1742C5.89861 68.74 6.70265 70.8635 6.70265 70.9225C6.70265 70.9814 6.02726 71.0404 5.22322 71.0404C4.41917 71.0404 3.48649 71.1879 3.16487 71.3354C1.13868 72.3381 -0.662371 87.4971 0.238156 96.1088C1.01004 103.305 2.68244 109.085 5.60916 114.541C7.53886 118.14 10.6907 122.327 11.6877 122.681C12.6526 122.976 14.3571 122.209 14.7431 121.325C15.129 120.381 14.8396 119.673 13.135 117.638C11.3018 115.397 8.18209 109.498 7.18508 106.284C5.48051 100.857 4.99808 97.377 4.96592 90.3578C4.93376 84.2824 5.22322 81.0678 6.09158 76.9979L6.4132 75.4643H33.429H60.4448L60.2519 76.5555C59.287 81.6871 57.5181 85.2852 54.1733 88.8832L53.0798 90.0629L52.1471 89.4141C49.4455 87.4676 45.6826 86.0815 43.1418 86.0815C36.7417 86.0815 30.8882 90.7412 29.8269 96.6692C28.9264 101.889 32.3677 107.581 37.6744 109.705C38.6714 110.088 39.5076 110.56 39.5076 110.737C39.5076 110.943 38.607 112.33 37.5457 113.834C34.0722 118.7 27.6399 123.979 22.5584 126.102C19.7603 127.282 19.8889 126.604 19.8889 139.108V150.109L20.693 150.817L21.4649 151.554H41.2121C60.1875 151.554 61.0237 151.525 61.7313 150.994C62.471 150.433 62.5032 150.286 62.5997 144.977L62.6961 139.521L68.7104 139.374C76.0432 139.197 79.2916 138.548 84.6947 136.071C88.9401 134.154 91.5773 132.384 95.0186 129.081C100.132 124.185 103.445 118.14 104.474 111.858C105.021 108.378 105.15 108.112 106.243 107.906C109.62 107.257 112 104.485 112 101.27C111.968 99.6479 111.775 99.117 109.427 94.9291C105.536 88.028 103.734 82.3654 103.316 75.8182C103.059 72.1316 102.544 71.0404 101.065 71.0404C100.647 71.0404 100.293 70.9814 100.293 70.952C100.293 70.893 102.77 66.2037 105.825 60.5412L111.357 50.2484V48.184C111.357 45.8246 110.714 44.3795 108.912 42.8164C108.301 42.2855 105.085 40.634 101.483 39.0414C94.4719 35.9152 93.0568 35.5908 90.2909 36.3871ZM99.1675 42.9049C102.352 44.3205 105.278 45.7361 105.664 46.0605C106.918 47.0927 106.918 48.3314 105.761 50.6613C105.182 51.8115 104.603 52.7553 104.506 52.7553C104.41 52.7553 103.156 52.3129 101.773 51.7525C100.39 51.1922 99.0067 50.8088 98.7172 50.8972C97.1413 51.4281 96.4016 52.9617 97.2378 54.1119C97.4951 54.4953 98.7494 55.2916 99.9715 55.8519C101.226 56.4123 102.223 56.9432 102.223 57.0021C102.223 57.1201 98.9424 63.4609 98.7816 63.6379C98.7172 63.7264 96.9483 62.9891 94.8257 62.0453C91.2879 60.4822 90.9019 60.3642 90.0657 60.6887C89.1009 61.0721 88.3933 62.0748 88.3933 63.0775C88.3933 63.9033 89.8728 64.8766 93.3141 66.3217C95.0508 67.059 96.4338 67.7373 96.4338 67.8848C96.4338 68.0027 96.08 68.7695 95.6297 69.5658L94.8257 71.0404H84.6626C78.6805 71.0404 74.5638 70.9225 74.6281 70.775C74.6925 70.6275 78.1981 63.9623 82.4434 55.9699C90.4838 40.8699 90.8055 40.3685 92.7352 40.3685C93.0889 40.3685 95.9835 41.5187 99.1675 42.9049ZM20.5643 49.4226C23.0086 51.3396 25.0348 52.9617 25.0348 53.0797C25.0348 53.1681 23.4589 54.6133 21.497 56.2648L17.9914 59.273L13.2636 58.9781C10.6585 58.8012 8.50371 58.6242 8.47155 58.5947C8.43939 58.5357 8.98613 55.9699 9.69369 52.8437L10.9802 47.2107L12.942 46.6209C14.0355 46.2965 15.1612 46.0015 15.4828 46.0015C15.8044 45.972 18.0879 47.5351 20.5643 49.4226ZM30.4701 64.0213L33.0431 71.0404H28.9264H24.7775L23.2981 66.9705C22.494 64.7586 21.8186 62.7236 21.8186 62.4877C21.8186 62.1338 27.6399 56.8252 27.8007 57.0021C27.8329 57.0021 29.0229 60.1873 30.4701 64.0213ZM15.8366 63.6379L17.0909 63.8148L18.3452 67.2064C19.0206 69.0645 19.5673 70.6865 19.5673 70.8045C19.5673 70.952 17.7984 71.0109 15.6436 70.9814L11.752 70.893L10.4977 67.5014C9.82234 65.6434 9.1791 63.9033 9.11478 63.6379C8.95397 63.1955 9.24343 63.166 11.752 63.284C13.2958 63.3725 15.1612 63.5199 15.8366 63.6379ZM98.3635 75.8182C98.3635 76.0246 98.5886 77.5877 98.8137 79.2983C99.7786 85.9045 102.094 92.1864 105.793 98.2028C106.661 99.6184 107.369 101.034 107.369 101.358C107.369 101.712 107.015 102.332 106.597 102.774C105.954 103.482 105.568 103.6 103.702 103.718C101.097 103.865 100.293 104.573 100.293 106.608C100.293 107.286 100.132 108.908 99.9394 110.147C98.7172 118.316 93.3784 126.014 85.8847 130.467C83.0545 132.119 80.8353 133.033 77.1689 134.065C74.6281 134.773 73.7598 134.832 66.7485 135.009C57.0035 135.245 57.8397 134.596 57.8397 141.851V147.13H41.2765H24.7132V138.637V130.113L25.6137 129.759C26.0961 129.553 27.6721 128.668 29.0872 127.783C33.5898 125.07 38.2854 120.794 41.1478 116.871C43.2062 114.099 45.6183 109.587 45.6183 108.614C45.6183 107.463 44.4605 106.431 43.2062 106.431C40.1186 106.431 36.6773 104.396 35.2944 101.771C34.3939 100.09 34.2974 97.1411 35.1014 95.46C35.9376 93.6315 38.0603 91.7735 40.0865 91.0657C43.4635 89.9155 46.8726 90.8297 49.9601 93.72C52.0506 95.6959 52.919 95.7254 55.3633 93.8969C59.3835 90.8887 63.0821 85.2852 64.2399 80.3895C64.5937 78.8854 64.9796 77.1748 65.0761 76.5555L65.2691 75.4643H81.8002C94.8257 75.4643 98.3635 75.5527 98.3635 75.8182Z" fill="#E70082"/>
<path d="M79.0664 82.5127C77.4583 82.9846 76.2683 83.6924 75.1105 84.8721C73.7597 86.2287 73.0843 87.5558 72.7949 89.3844C72.6341 90.4166 72.6984 90.8 73.2773 91.4783C74.5638 92.9824 77.4583 92.3336 77.4583 90.5346C77.4583 88.5586 79.4523 86.6711 81.575 86.6711C83.5369 86.6711 85.4987 88.2932 85.4987 89.9152C85.4987 90.623 86.0455 91.7142 86.5922 92.0387C86.7852 92.1566 87.4928 92.2746 88.136 92.2746C92.1884 92.2746 90.2908 85.3734 85.6595 83.1615C83.955 82.3652 80.6745 82.0408 79.0664 82.5127Z" fill="#E70082"/>
<path d="M40.9552 96.8461C39.9903 97.7309 39.926 98.7336 40.8265 99.7658C42.1773 101.329 44.6538 100.385 44.6538 98.3207C44.6538 96.2857 42.4668 95.4305 40.9552 96.8461Z" fill="#E70082"/>
</svg>
