<svg width="133" height="133" viewBox="0 0 133 133" fill="none" xmlns="http://www.w3.org/2000/svg">
<path d="M62.084 0.285751C45.9006 2.07812 32.2889 14.1832 28.6262 30.0289C27.743 33.8475 27.5352 36.9387 27.5352 46.8357C27.5352 57.3043 27.6131 58.0057 29.1717 60.0578C29.6393 60.6813 30.6264 61.5125 31.3537 61.9541L32.6785 62.7334L32.7824 65.2012C32.9123 68.1365 33.4578 69.5652 35.0684 71.1758C36.601 72.7084 38.1336 73.3318 40.7313 73.4617L42.8873 73.5916L43.5627 74.9164C44.4459 76.6828 45.5369 78.2674 47.0695 80.0598L48.3424 81.5404L46.1344 85.9305L43.9264 90.3205L36.4451 92.8402C26.626 96.1652 23.6906 97.7238 18.9109 102.296C12.4428 108.504 8.52031 116.193 7.14355 125.337C6.93574 126.766 6.75391 128.662 6.75391 129.545C6.75391 130.974 6.85781 131.286 7.50723 132.013L8.26055 132.87L66.3441 132.948L124.428 133L125.259 132.273C125.96 131.623 126.09 131.312 126.194 129.961C126.246 129.129 126.116 127.129 125.882 125.545C124.506 116.245 120.609 108.556 114.089 102.296C109.309 97.7238 106.374 96.1652 96.5549 92.8402L89.0736 90.3205L86.8656 85.9305L84.6576 81.5404L85.9305 80.0598C89.2035 76.2412 91.3856 71.6434 92.3207 66.6299C92.5545 65.3311 92.8143 64.0322 92.8662 63.7465C92.9961 63.201 93.152 63.175 96.2951 63.0711C98.9967 62.9932 99.8539 62.8633 100.815 62.4217C102.374 61.7203 104.062 60.0318 104.789 58.4732C105.309 57.3303 105.335 56.8627 105.413 47.667C105.465 41.8482 105.387 36.9387 105.205 35.1982C104.296 26.0805 100.633 18.2615 94.217 11.7154C85.8006 3.11719 74.0592 -1.03905 62.084 0.285751ZM72.8643 5.84473C79.8779 7.29942 85.359 10.2607 90.2945 15.1703C95.7236 20.5994 98.9447 27.1455 99.9578 34.7307L100.192 36.3672H97.6719H95.1781L94.8404 33.7176C93.7234 24.6518 88.3982 17.1186 80.3195 13.1182C76.1633 11.066 72.7344 10.3906 66.5 10.3906C60.2656 10.3906 56.8367 11.066 52.6805 13.1182C44.6018 17.1186 39.2766 24.6518 38.1596 33.7176L37.8219 36.3672H35.3021C33.0422 36.3672 32.7824 36.3152 32.8604 35.8996C32.9123 35.6658 33.0941 34.5229 33.25 33.3799C33.8994 29.0678 35.7178 24.444 38.4713 20.2357C40.3676 17.3264 44.7057 12.9363 47.4852 11.092C51.4855 8.41641 56.6809 6.33829 60.7852 5.74083C61.8502 5.58497 63.0191 5.40313 63.3828 5.35118C64.7336 5.11739 70.8641 5.42911 72.8643 5.84473ZM72.5266 15.9496C76.3451 16.7029 79.0986 17.9758 82.1119 20.3916C86.7877 24.1582 89.4633 29.6393 89.801 36.0555L89.9568 38.9908L88.8139 38.809C85.7227 38.3674 81.1508 37.3283 79.0727 36.601C74.0072 34.8346 68.5002 31.6395 64.9414 28.3924C62.5516 26.2363 62.1359 25.9766 60.7852 25.9766C58.1615 25.9766 53.5377 27.1195 51.0699 28.3664C48.9139 29.4574 46.576 31.1199 44.9654 32.7565L43.3029 34.419L43.4588 33.1721C43.9004 29.951 45.8227 25.8986 48.2904 22.9113C51.1738 19.4565 55.9016 16.7549 60.6553 15.8717C62.7854 15.482 70.3705 15.534 72.5266 15.9496ZM61.4865 32.2889C68.4223 38.4193 76.8906 42.2639 86.8656 43.7445C88.2684 43.9523 89.4893 44.1861 89.5412 44.2641C89.749 44.4719 89.1516 51.9531 88.5801 56.7328C87.1773 68.1365 85.9824 71.7732 82.1639 76.501C79.6961 79.5402 75.5139 82.2678 71.6953 83.3068C69.3574 83.9563 63.6426 83.9563 61.3047 83.3068C57.2004 82.1898 52.8883 79.2545 50.2127 75.7217C49.4594 74.7346 48.8359 73.8254 48.8359 73.7215C48.8359 73.5916 49.9789 73.5137 51.3816 73.5137L53.9014 73.5396L54.6807 74.8645C55.6418 76.5529 57.2523 77.7998 59.1227 78.3453C61.3307 78.9688 68.0066 78.7869 69.6432 78.0076C71.2018 77.3063 72.8902 75.6178 73.5916 74.0592C74.3709 72.3967 74.3709 69.4354 73.5916 67.7729C72.8902 66.2143 71.2018 64.5258 69.6432 63.8244C68.0066 63.0451 61.3307 62.8633 59.1227 63.4867C57.2523 64.0322 55.6418 65.2791 54.6807 66.9676L53.9014 68.2924L50.0828 68.3184C47.9527 68.3184 46.2383 68.2404 46.2383 68.1105C46.2383 68.0066 46.0564 67.0975 45.8486 66.1104C44.9395 61.6943 43.7965 52.057 43.4848 46.2383L43.3289 42.9912L45.3811 40.2637C46.524 38.757 48.2385 36.8088 49.1996 35.9256C52.0311 33.3279 56.0055 31.5875 59.9279 31.1979C60.1098 31.1979 60.8111 31.6654 61.4865 32.2889ZM38.0297 42.7834C38.1076 43.4848 38.2375 45.433 38.3154 47.1475C38.4193 48.8619 38.6531 51.7713 38.8609 53.6416C39.0428 55.4859 39.2246 57.2264 39.2246 57.4861C39.2246 57.9277 39.0168 57.9797 36.7568 57.8758C34.4709 57.7979 34.2371 57.7459 33.5877 57.0705L32.8604 56.3691L32.7824 48.9658L32.7045 41.5625H35.3021H37.8738L38.0297 42.7834ZM100.218 48.9658L100.14 56.3691L99.4123 57.0705C98.7629 57.7459 98.5291 57.7979 96.2432 57.8758C93.9832 57.9797 93.7754 57.9277 93.7754 57.4861C93.7754 57.2264 93.9572 55.4859 94.1391 53.6416C94.3469 51.7713 94.5807 48.81 94.6846 47.0176C94.7625 45.2252 94.8924 43.277 94.9703 42.6535L95.1002 41.5625H97.6979H100.296L100.218 48.9658ZM40.1338 63.6945C40.1857 64.0322 40.3676 65.0193 40.5234 65.9285C40.6793 66.8377 40.8871 67.7469 40.965 67.9807C41.2248 68.6301 39.5104 68.1885 38.7051 67.4092C38.1855 66.8637 38.0557 66.4481 37.9777 64.9414L37.8738 63.1231H38.9389C39.8221 63.1231 40.0039 63.227 40.1338 63.6945ZM68.2404 69.1496C69.3055 70.2406 69.2535 71.7473 68.0846 72.7863L67.2273 73.5656L63.7465 73.4617C60.4215 73.3838 60.2397 73.3578 59.6162 72.7084C58.6551 71.7732 58.4992 70.4484 59.2266 69.5393C60.1098 68.4482 60.6033 68.3184 64.2141 68.3963C67.4352 68.4482 67.5391 68.4742 68.2404 69.1496ZM82.7613 89.1256L84.4758 92.5545L83.7744 94.5027C82.8393 97.1004 80.9949 101.438 79.6961 104.01L78.657 106.062L74.267 101.672L69.877 97.2822L70.9939 96.1133C71.6174 95.4639 74.0852 92.8662 76.475 90.3205C78.8908 87.8008 80.891 85.7227 80.943 85.7227C80.9949 85.7227 81.8002 87.2553 82.7613 89.1256ZM58.5252 101.75C56.2912 104.088 54.4209 105.984 54.3689 105.984C54.1352 105.984 50.966 99.0486 49.7451 95.8795L48.4982 92.6844L50.0309 89.5932L51.5375 86.502L57.0705 92.009L62.5775 97.49L58.5252 101.75ZM66.7857 88.9697H70.6043L68.5002 91.1777C67.3312 92.3986 66.3182 93.4117 66.2402 93.4637C66.1623 93.4897 64.9934 92.3986 63.6426 91.0479C61.2787 88.684 61.2268 88.5801 62.084 88.7619C62.5775 88.8918 64.7076 88.9697 66.7857 88.9697ZM45.459 99.2305C48.2125 106.088 51.9272 112.92 56.7588 120.012C58.0836 121.934 59.7461 124.48 60.4994 125.675L61.8242 127.805H36.9387H12.0271L12.2609 126.038C13.6377 115.674 20.1318 106.036 28.9639 101.257C30.9381 100.192 43.1471 95.8275 43.8484 95.9314C44.0303 95.9574 44.7576 97.4381 45.459 99.2305ZM95.4379 97.9316C98.8408 99.0746 102.555 100.503 103.724 101.101C112.66 105.751 119.362 115.544 120.739 126.038L120.973 127.805H96.0613H71.1758L72.5006 125.675C73.2539 124.48 74.9164 121.934 76.2412 120.012C80.9689 113.076 84.3979 106.842 87.0734 100.27C87.8787 98.3473 88.5801 96.5549 88.658 96.2951C88.7619 96.0613 88.9178 95.8535 89.0477 95.8535C89.1775 95.8535 92.035 96.7887 95.4379 97.9316ZM71.0979 106.036C73.7215 108.66 75.8516 110.894 75.8516 111.024C75.8516 111.154 74.6047 113.128 73.0721 115.388C71.5135 117.674 69.4873 120.791 68.5002 122.298C67.5391 123.83 66.6299 125.077 66.5 125.077C66.3701 125.077 65.4609 123.83 64.4998 122.298C63.5127 120.791 61.4605 117.648 59.902 115.362C58.3693 113.05 57.1484 111.024 57.2264 110.842C57.3822 110.452 65.9805 101.309 66.2143 101.309C66.2922 101.309 68.5002 103.439 71.0979 106.036Z" fill="#E70082"/>
<path d="M94.1391 103.127C93.3078 103.465 92.4766 104.659 92.4766 105.491C92.4766 106.53 93.6715 107.777 94.8404 107.959C95.6457 108.088 95.9314 107.984 96.6588 107.335C97.3861 106.686 97.542 106.374 97.542 105.465C97.542 104.556 97.3861 104.244 96.6848 103.62C95.8275 102.867 95.1262 102.711 94.1391 103.127Z" fill="#E70082"/>
<path d="M103.257 108.037C102.322 108.426 101.698 109.362 101.698 110.401C101.698 111.31 101.932 111.621 104.192 113.959C105.595 115.414 107.153 117.336 107.803 118.401C109.05 120.531 109.959 121.181 111.31 120.947C112.297 120.765 112.92 120.142 113.232 119.025C113.673 117.518 111.413 113.778 108.037 110.427C105.569 107.959 104.634 107.491 103.257 108.037Z" fill="#E70082"/>
</svg>
