<svg width="151" height="151" viewBox="0 0 151 151" fill="none" xmlns="http://www.w3.org/2000/svg">
<path d="M56.7723 4.98438C51.7881 6.28203 48.7504 11.2072 49.8121 16.2504L50.166 17.843L49.0453 18.7277C43.5008 23.1516 37.6613 30.0527 34.948 35.3908L34.2402 36.777L36.2752 37.7502C37.4254 38.3105 38.3691 38.6939 38.4576 38.6055C38.5166 38.5465 39.1949 37.4258 39.9617 36.1281C42.852 31.2914 47.5117 25.9533 51.5227 22.7977L53.0268 21.618L54.8848 22.5322C56.5363 23.3285 57.0377 23.4465 59.1316 23.417C61.668 23.417 63.4375 22.7682 65.384 21.1166C66.5932 20.0844 68.0383 17.2531 68.3037 15.3951C68.4807 13.891 68.5396 13.8615 69.7193 13.5371C76.4436 11.7381 84.259 11.3547 90.9537 12.5344C92.3988 12.7998 93.6965 12.8883 93.785 12.7703C94.1094 12.4164 94.9057 8.55293 94.6992 8.43496C94.6107 8.37598 93.0771 8.08105 91.2781 7.78613C88.8893 7.37324 86.5594 7.22578 82.4305 7.25527C76.709 7.25527 73.8188 7.60918 69.1 8.81836C67.9203 9.14277 66.9471 9.29024 66.9471 9.17227C66.9471 8.61192 64.2633 6.31152 62.8477 5.66269C61.1666 4.8959 58.3354 4.57148 56.7723 4.98438ZM60.8422 9.85059C63.8799 11.1187 64.6172 15.0707 62.2578 17.4301C60.3408 19.3471 57.6275 19.3471 55.7105 17.4301C52.0535 13.8025 56.0939 7.84512 60.8422 9.85059Z" fill="#E70082"/>
<path d="M113.987 5.45605C113.338 6.07539 113.25 6.42929 113.25 8.40527V10.6467L112.188 11.0891L111.127 11.5314L109.416 9.90937C106.85 7.46152 106.85 7.46152 101.984 12.3277C97.1178 17.1939 97.1178 17.1939 99.5656 19.7598L101.188 21.4703L100.745 22.532L100.303 23.5938H98.0615C96.0855 23.5938 95.7316 23.6822 95.1123 24.3311C94.375 25.0389 94.375 25.0979 94.375 30.6719C94.375 36.2459 94.375 36.3049 95.1123 37.0127C95.7316 37.6615 96.0855 37.75 98.0615 37.75H100.303L100.745 38.8117L101.188 39.8734L99.5656 41.584C97.1178 44.1498 97.1178 44.1498 101.984 49.016C106.85 53.8822 106.85 53.8822 109.416 51.4344L111.127 49.8123L112.188 50.2547L113.25 50.6971V52.9385C113.25 54.9145 113.338 55.2684 113.987 55.8877C114.695 56.625 114.754 56.625 120.328 56.625C125.902 56.625 125.961 56.625 126.669 55.8877C127.318 55.2684 127.406 54.9145 127.406 52.9385V50.6971L128.468 50.2547L129.53 49.8123L131.24 51.4344C133.806 53.8822 133.806 53.8822 138.672 49.016C143.538 44.1498 143.538 44.1498 141.091 41.584L139.469 39.8734L139.911 38.8117L140.353 37.75H142.595C144.571 37.75 144.925 37.6615 145.544 37.0127C146.281 36.3049 146.281 36.2459 146.281 30.6719C146.281 25.0979 146.281 25.0389 145.544 24.3311C144.925 23.6822 144.571 23.5938 142.595 23.5938H140.353L139.911 22.532L139.469 21.4703L141.091 19.7598C143.538 17.1939 143.538 17.1939 138.672 12.3277C133.806 7.46152 133.806 7.46152 131.24 9.90937L129.53 11.5314L128.468 11.0891L127.406 10.6467V8.40527C127.406 6.42929 127.318 6.07539 126.669 5.45605C125.961 4.71875 125.902 4.71875 120.328 4.71875C114.754 4.71875 114.695 4.71875 113.987 5.45605ZM122.688 11.2955C122.688 13.6254 123.13 14.2447 125.135 14.923C125.961 15.1885 127.288 15.7193 128.055 16.1027C128.822 16.4861 129.736 16.8105 130.061 16.8105C130.414 16.8105 131.329 16.1912 132.154 15.4244L133.629 14.0383L135.281 15.7193L136.962 17.3709L135.576 18.8455C134.809 19.6713 134.189 20.5855 134.189 20.9395C134.189 21.2639 134.514 22.1781 134.897 22.9449C135.281 23.7117 135.812 25.0389 136.077 25.8646C136.755 27.8701 137.375 28.3125 139.704 28.3125H141.562V30.6719V33.0312H139.704C137.375 33.0312 136.755 33.4736 136.077 35.4791C135.812 36.3049 135.281 37.632 134.897 38.3988C134.514 39.1656 134.189 40.0799 134.189 40.4043C134.189 40.7582 134.809 41.6725 135.576 42.4982L136.962 43.9729L135.281 45.6244L133.629 47.3055L132.154 45.9193C131.329 45.1525 130.414 44.5332 130.061 44.5332C129.736 44.5332 128.822 44.8576 128.055 45.241C127.288 45.6244 125.961 46.1553 125.135 46.4207C123.13 47.099 122.688 47.7184 122.688 50.0482V51.9062H120.328H117.969V50.0482C117.969 47.7184 117.526 47.099 115.521 46.4207C114.695 46.1553 113.368 45.6244 112.601 45.241C111.834 44.8576 110.92 44.5332 110.596 44.5332C110.242 44.5332 109.328 45.1525 108.502 45.9193L107.027 47.3055L105.376 45.6244L103.695 43.9729L105.081 42.4982C105.847 41.6725 106.467 40.7582 106.467 40.4043C106.467 40.0799 106.142 39.1656 105.759 38.3988C105.376 37.632 104.845 36.3049 104.579 35.4791C103.901 33.4736 103.282 33.0312 100.952 33.0312H99.0938V30.6719V28.3125H100.952C103.282 28.3125 103.901 27.8701 104.579 25.8646C104.845 25.0389 105.376 23.7117 105.759 22.9449C106.142 22.1781 106.467 21.2639 106.467 20.9395C106.467 20.5855 105.847 19.6713 105.081 18.8455L103.695 17.3709L105.376 15.7193L107.027 14.0383L108.502 15.4244C109.328 16.1912 110.242 16.8105 110.596 16.8105C110.92 16.8105 111.834 16.4861 112.601 16.1027C113.368 15.7193 114.695 15.1885 115.521 14.923C117.526 14.2447 117.969 13.6254 117.969 11.2955V9.4375H120.328H122.688V11.2955Z" fill="#E70082"/>
<path d="M117.556 19.1699C115.698 19.6418 113.044 21.2344 111.746 22.6205C111.097 23.3283 110.124 24.8029 109.622 25.8941C108.767 27.6932 108.679 28.1355 108.679 30.7014C108.679 33.3557 108.738 33.6211 109.77 35.7445C111.097 38.4283 112.808 40.0799 115.55 41.3775C117.349 42.2328 117.792 42.3213 120.328 42.3213C122.864 42.3213 123.307 42.2328 125.106 41.3775C127.849 40.0799 129.559 38.4283 130.886 35.7445C131.919 33.6211 131.978 33.3557 131.978 30.6719C131.978 27.9881 131.919 27.7227 130.886 25.5992C128.881 21.5883 125.342 19.1994 120.977 18.993C119.738 18.934 118.205 19.0225 117.556 19.1699ZM122.511 23.9477C125.047 24.7145 127.406 27.9586 127.406 30.6719C127.406 34.3289 123.985 37.75 120.328 37.75C118.47 37.75 116.966 37.0717 115.462 35.5381C112.454 32.5594 112.454 28.7844 115.462 25.8057C117.526 23.7117 119.738 23.1514 122.511 23.9477Z" fill="#E70082"/>
<path d="M36.5703 42.6162C36.3344 42.6752 35.1252 42.8816 33.916 43.0586C23.3578 44.7691 13.4484 52.1717 8.49375 62.0811C5.86895 67.3012 4.8957 71.548 4.86621 77.7119C4.86621 82.3127 5.30859 85.2619 6.54727 88.9189C8.78867 95.5842 13.2125 101.778 18.6686 105.906L21.0869 107.735L21.2934 112.336C21.4113 114.872 21.4998 117.202 21.5293 117.526C21.5588 117.851 21.4703 118.736 21.3523 119.502C21.0574 121.508 21.6473 123.336 23.1514 124.988C24.3311 126.315 24.3605 126.404 24.0066 127.259C23.8002 127.731 23.6232 128.881 23.6232 129.766C23.5938 132.597 25.2453 135.222 27.6932 136.224C28.1945 136.46 28.6074 136.844 28.6074 137.109C28.6074 138.171 30.4359 141.356 31.8516 142.772C32.7068 143.627 34.152 144.63 35.3316 145.19C37.1307 146.045 37.5731 146.134 40.1389 146.134C42.7932 146.134 43.0586 146.075 45.182 145.013C48.3377 143.479 50.7856 140.53 51.4344 137.522C51.5818 136.873 51.9063 136.49 52.5551 136.224C54.9734 135.222 56.625 132.597 56.5955 129.766C56.5955 128.881 56.4186 127.731 56.2121 127.259C55.8582 126.404 55.8877 126.315 57.0674 124.988C58.5715 123.336 59.1613 121.508 58.8664 119.502C58.7484 118.736 58.66 117.851 58.6895 117.526C58.719 117.202 58.8074 114.872 58.9254 112.336L59.1318 107.735L61.5502 105.906C68.2744 100.834 72.9637 93.3133 74.7922 84.6426C75.4705 81.5164 75.5295 74.5268 74.9397 71.5186C73.4945 64.2045 70.1619 58.0111 64.9123 52.791C60.0166 47.9248 54.4426 44.8281 47.7774 43.324C45.477 42.7932 37.809 42.2918 36.5703 42.6162ZM44.4152 47.5119C48.9275 48.1312 54.1772 50.2252 57.9522 52.9385C59.9576 54.3541 63.9981 58.4535 65.3842 60.459C70.0145 67.2422 71.784 76.1193 70.0734 84.2297C68.4514 91.8387 63.4082 99.2117 56.743 103.577C55.5928 104.343 54.5606 105.169 54.4426 105.435C54.3541 105.7 54.2656 107.587 54.2656 109.593V113.25H48.3672H42.4688V110.891V108.531H40.1094H37.75V110.891V113.25H31.8516H25.9531V109.593C25.9531 107.587 25.8647 105.7 25.7762 105.435C25.6582 105.169 24.626 104.343 23.4758 103.577C10.3518 94.9353 5.75098 78.0953 12.7406 64.1455C14.3922 60.8424 16.0438 58.6305 18.9045 55.8877C21.7947 53.1154 23.2104 52.0832 26.425 50.4906C32.0285 47.6594 38.2219 46.6566 44.4152 47.5119ZM53.5283 118.706C54.0002 119.148 54.2656 119.768 54.2656 120.328C54.2656 120.888 54.0002 121.508 53.5283 121.95L52.8205 122.688H40.1094H27.3982L26.6904 121.95C26.2186 121.508 25.9531 120.888 25.9531 120.328C25.9531 119.768 26.2186 119.148 26.6904 118.706L27.3982 117.969H40.1094H52.8205L53.5283 118.706ZM51.2279 128.055C52.1127 128.881 52.1422 130.503 51.2574 131.447L50.6381 132.125H40.1389C29.8166 132.125 29.6691 132.125 28.9908 131.476C28.1061 130.65 28.0766 129.028 28.9613 128.085L29.5807 127.406H40.0799C50.4022 127.406 50.5496 127.406 51.2279 128.055ZM46.5977 136.991C46.5977 137.552 45.5654 138.997 44.5332 139.852C41.9084 142.123 38.3104 142.123 35.6856 139.852C34.6533 138.997 33.6211 137.552 33.6211 136.991C33.6211 136.903 36.5408 136.844 40.1094 136.844C43.6779 136.844 46.5977 136.903 46.5977 136.991Z" fill="#E70082"/>
<path d="M37.7503 54.649C37.19 54.826 36.0398 55.6518 35.2435 56.4775C33.1495 58.542 32.5597 60.7834 33.3855 63.4672C33.7984 64.8828 35.6269 67.0357 36.8656 67.5371L37.7503 67.891V85.8518V103.812H40.1097H42.4691V85.8518V67.891L43.3538 67.5371C44.5925 67.0357 46.421 64.8828 46.8339 63.4672C47.6007 60.9309 47.0699 58.6895 45.2118 56.625C43.2949 54.5016 40.5521 53.7643 37.7503 54.649ZM41.7318 59.7217C43.2064 61.1668 42.1742 63.7031 40.1097 63.7031C38.9005 63.7031 37.7503 62.5529 37.7503 61.3438C37.7503 60.1346 38.9005 58.9844 40.1097 58.9844C40.6701 58.9844 41.2894 59.2498 41.7318 59.7217Z" fill="#E70082"/>
<path d="M21.2347 68.8053C19.7896 69.2771 17.3122 71.8135 16.8699 73.3176C16.0441 76.0898 16.6339 78.3018 18.7279 80.3662C20.7628 82.4012 23.2402 83.0795 25.629 82.2537C26.4843 81.9588 26.6613 81.9883 27.4576 82.7551L28.3128 83.5809V92.517V101.453H30.6722H33.0316V91.5437V81.6639L31.5275 80.0713C30.0824 78.5377 30.0234 78.4197 30.3478 77.535C31.1146 75.2936 30.5247 72.8162 28.6962 70.7812C26.7792 68.6578 24.0365 67.9205 21.2347 68.8053ZM25.2161 73.8779C25.688 74.3203 25.9535 74.9396 25.9535 75.5C25.9535 76.0604 25.688 76.6797 25.2161 77.1221C24.7738 77.5939 24.1544 77.8594 23.5941 77.8594C23.0337 77.8594 22.4144 77.5939 21.972 77.1221C20.4974 75.677 21.5296 73.1406 23.5941 73.1406C24.1544 73.1406 24.7738 73.4061 25.2161 73.8779Z" fill="#E70082"/>
<path d="M54.2656 68.8053C52.8205 69.2771 50.3432 71.8135 49.9008 73.3176C49.4584 74.8217 49.4584 76.2963 49.8713 77.535C50.1957 78.4197 50.1367 78.5377 48.6916 80.0713L47.1875 81.6639V91.5437V101.453H49.5469H51.9062V92.517V83.5809L52.7615 82.7551C53.5578 81.9883 53.7348 81.9588 54.59 82.2537C56.9789 83.0795 59.4562 82.4012 61.4912 80.3662C64.3814 77.5055 64.4699 73.8189 61.7271 70.7812C59.8102 68.6578 57.0674 67.9205 54.2656 68.8053ZM58.2471 73.8779C59.7217 75.323 58.6895 77.8594 56.625 77.8594C56.0646 77.8594 55.4453 77.5939 55.0029 77.1221C53.5283 75.677 54.5605 73.1406 56.625 73.1406C57.1854 73.1406 57.8047 73.4061 58.2471 73.8779Z" fill="#E70082"/>
<path d="M134.927 56.5365C134.278 56.5955 133.364 56.684 132.862 56.7725L131.978 56.9199L131.948 61.8746C131.919 67.3307 131.447 70.8402 130.031 75.559C127.731 83.3449 123.661 90.1281 117.644 96.233L114.784 99.1233L113.663 98.3565C110.065 95.9086 105.022 96.41 101.896 99.5361C100.097 101.306 99.3002 103.223 99.2707 105.788L99.2412 107.941L97.4717 108.531C88.5061 111.51 76.6797 111.51 67.5666 108.531C66.033 108.03 64.6764 107.735 64.5584 107.853C64.3225 108.118 62.7889 111.834 62.9069 111.923C62.9363 111.952 64.234 112.395 65.7676 112.926C71.725 114.872 78.3608 115.786 84.6426 115.521C89.4498 115.314 92.7235 114.754 97.7076 113.368L101.512 112.306L102.426 113.191C104.048 114.754 105.995 115.462 108.679 115.462C110.802 115.432 111.245 115.344 112.896 114.459C113.928 113.899 115.079 113.044 115.491 112.572C117.438 110.271 118.382 106.703 117.703 104.255L117.379 103.075L120.269 100.273C128.704 92.0451 134.013 82.0768 135.988 70.7813C136.903 65.4727 137.109 56.1826 136.313 56.3891C136.195 56.4186 135.576 56.4776 134.927 56.5365ZM110.389 101.866C113.427 103.134 114.164 107.086 111.805 109.446C109.888 111.363 107.175 111.363 105.258 109.446C101.601 105.818 105.641 99.8606 110.389 101.866Z" fill="#E70082"/>
</svg>
