<svg width="312" height="298" viewBox="0 0 312 298" fill="none" xmlns="http://www.w3.org/2000/svg">
<path d="M14.3203 5.93695C8.71403 7.91583 4.26559 11.8737 1.64528 17.2866L0.304651 20.0803L0.121839 117.28C-3.62918e-05 188.986 0.121839 215.294 0.609339 217.68C1.0359 219.426 1.94996 221.929 2.74215 223.267C4.63121 226.352 9.14059 230.31 12.675 231.823C15.539 233.104 15.6609 233.104 69.8953 233.278L124.312 233.453V235.374C124.312 239.157 122.484 246.316 120.595 250.39C119.194 253.242 117.609 255.279 115.111 257.491C110.175 261.914 107.859 262.554 95.3671 263.02C86.9578 263.369 84.5203 263.66 82.2656 264.65C78.8531 266.047 75.7453 269.015 74.2828 272.1C72.7593 275.243 72.7593 281.179 74.2828 284.322C75.6843 287.291 80.4984 291.365 83.4234 292.18C86.4093 292.995 225.591 292.995 228.577 292.18C231.502 291.365 236.316 287.291 237.717 284.322C239.241 281.179 239.241 275.243 237.717 272.1C236.255 269.015 233.147 266.047 229.734 264.65C227.48 263.66 225.042 263.369 216.633 263.02C204.141 262.554 201.825 261.914 196.889 257.491C194.391 255.279 192.867 253.3 191.466 250.448C189.516 246.374 187.687 239.099 187.687 235.49V233.453L242.105 233.278C296.339 233.104 296.461 233.104 299.325 231.823C302.859 230.31 307.369 226.352 309.258 223.267C310.05 221.929 310.964 219.426 311.391 217.68C311.878 215.294 312 188.986 311.878 117.28L311.695 20.0803L310.05 16.7627C308.1 12.7467 304.2 8.9635 300.117 6.98459L297.07 5.52951L156.609 5.41312C56.55 5.35492 15.6 5.52951 14.3203 5.93695ZM295.973 16.1225C297.131 16.6463 298.837 18.1014 299.691 19.3819L301.336 21.7682V102.671V183.631L296.339 183.806L291.281 183.98V106.512C291.281 26.4826 291.342 27.5303 288.905 25.7842C287.503 24.7365 24.4968 24.7365 23.0953 25.7842C20.6578 27.5303 20.7187 26.4826 20.7187 106.512V183.98L15.7218 183.806L10.664 183.631V102.671V21.7682L12.2484 19.4401C15.539 14.7256 1.52341 15.133 155.878 15.133C283.055 15.133 294.023 15.1912 295.973 16.1225ZM280.922 109.131V183.34H156H31.0781V109.131V34.9221H156H280.922V109.131ZM301.641 204.584C301.641 216.399 301.336 217.913 298.228 220.706C297.253 221.579 295.669 222.569 294.755 222.86C293.536 223.326 251.306 223.5 155.939 223.5C6.70309 223.5 16.6968 223.733 13.2843 220.241C10.664 217.505 10.3593 215.934 10.3593 204.526V193.817H156H301.641V204.584ZM176.962 234.675C177.084 235.432 177.511 238.167 177.937 240.787C179.034 248.528 182.934 257.898 186.652 261.74L187.87 263.078H156H124.13L125.348 261.74C129.066 257.898 132.966 248.528 134.062 240.787C134.489 238.167 134.916 235.432 135.037 234.675L135.281 233.395H156H176.719L176.962 234.675ZM227.053 274.777C228.942 276.465 229.003 279.666 227.175 281.529L225.895 282.867H156.061H86.2875L84.8859 281.587C82.2656 279.259 83.5453 274.486 86.9578 273.497C87.3843 273.38 118.767 273.322 156.67 273.38L225.591 273.438L227.053 274.777Z" fill="white"/>
<path d="M69.1641 46.2715L67.6406 47.6684V96.559V145.45L69.1031 147.079L70.5656 148.709L131.686 149L192.806 149.291L195.487 157.731C198.352 166.927 199.631 168.789 203.044 168.789C204.506 168.789 205.786 167.916 209.381 164.598L213.952 160.408L220.472 166.636C227.053 172.922 228.82 174.027 231.258 173.562C232.05 173.445 236.498 169.604 241.252 165.064C252.342 154.355 252.281 155.286 242.836 146.148L235.889 139.397L240.094 135.264C243.506 131.947 244.359 130.724 244.359 129.327C244.359 126.068 242.409 124.846 232.781 122.11L223.945 119.549L223.762 83.6961L223.641 47.9012L222.117 46.3297L220.655 44.8165H145.641H70.6266L69.1641 46.2715ZM213.281 61.9864V69.2618H145.641H78V61.9864V54.711H145.641H213.281V61.9864ZM213.281 98.1305C213.281 112.623 213.098 116.465 212.55 116.232C208.345 114.718 188.541 109.422 187.017 109.422C184.275 109.422 182.203 111.401 182.203 113.904C182.203 115.417 187.748 134.275 189.333 138.349C189.577 138.931 178.242 139.106 133.819 139.106H78V109.422V79.7383H145.641H213.281V98.1305ZM217.547 128.163C223.397 129.793 228.455 131.248 228.698 131.364C228.942 131.539 228.089 132.761 226.809 134.1C222.056 139.047 222.483 140.444 230.831 148.534L237.291 154.82L233.695 158.313L230.1 161.805L223.641 155.752C215.292 147.894 212.977 147.429 207.736 152.318C206.517 153.423 205.359 154.122 205.177 153.831C205.055 153.598 203.531 148.767 201.825 143.18C200.119 137.592 197.925 130.491 196.95 127.407L195.183 121.819L201.033 123.507C204.262 124.438 211.697 126.534 217.547 128.163Z" fill="white"/>
<path d="M90.3094 100.692C88.3594 102.438 88.2375 103.427 88.4813 115.417C88.6641 125.835 88.725 126.301 90.0657 127.581C91.4063 128.92 91.4672 128.92 113.222 129.095C125.166 129.211 135.586 129.095 136.317 128.92C137.048 128.746 138.267 128.047 138.938 127.349C140.095 126.185 140.156 125.312 140.156 114.253C140.156 102.438 140.156 102.38 138.633 100.983L137.17 99.5276H114.38C92.3813 99.5276 91.5891 99.5858 90.3094 100.692ZM129.797 114.369V119.317H114.258H98.7188V114.369V109.422H114.258H129.797V114.369Z" fill="white"/>
<path d="M136.866 205.224C134.733 207.32 134.794 209.706 137.049 211.918L138.816 213.605H156H173.184L174.952 211.918C177.206 209.706 177.267 207.32 175.134 205.224L173.489 203.711H156H138.511L136.866 205.224Z" fill="white"/>
</svg>
