<svg width="105" height="100" viewBox="0 0 105 100" fill="none" xmlns="http://www.w3.org/2000/svg">
<path d="M4.81934 1.99219C2.93262 2.65625 1.43555 3.98438 0.553711 5.80078L0.102539 6.73828L0.0410157 39.3555C1.1042e-07 63.418 0.0410157 72.2461 0.205078 73.0469C0.348633 73.6328 0.65625 74.4727 0.922852 74.9219C1.55859 75.957 3.07617 77.2852 4.26563 77.793C5.22949 78.2227 5.27051 78.2227 23.5225 78.2812L41.8359 78.3398V78.9844C41.8359 80.2539 41.2207 82.6562 40.585 84.0234C40.1133 84.9805 39.5801 85.6641 38.7393 86.4062C37.0781 87.8906 36.2988 88.1055 32.0947 88.2617C29.2646 88.3789 28.4443 88.4766 27.6855 88.8086C26.5371 89.2773 25.4912 90.2734 24.999 91.3086C24.4863 92.3633 24.4863 94.3555 24.999 95.4102C25.4707 96.4062 27.0908 97.7734 28.0752 98.0469C29.0801 98.3203 75.9199 98.3203 76.9248 98.0469C77.9092 97.7734 79.5293 96.4062 80.001 95.4102C80.5137 94.3555 80.5137 92.3633 80.001 91.3086C79.5088 90.2734 78.4629 89.2773 77.3145 88.8086C76.5557 88.4766 75.7354 88.3789 72.9053 88.2617C68.7012 88.1055 67.9219 87.8906 66.2607 86.4062C65.4199 85.6641 64.9072 85 64.4355 84.043C63.7793 82.6758 63.1641 80.2344 63.1641 79.0234V78.3398L81.4775 78.2812C99.7295 78.2227 99.7705 78.2227 100.734 77.793C101.924 77.2852 103.441 75.957 104.077 74.9219C104.344 74.4727 104.651 73.6328 104.795 73.0469C104.959 72.2461 105 63.418 104.959 39.3555L104.897 6.73828L104.344 5.625C103.687 4.27734 102.375 3.00781 101.001 2.34375L99.9756 1.85547L52.7051 1.81641C19.0313 1.79688 5.25 1.85547 4.81934 1.99219ZM99.6064 5.41016C99.9961 5.58594 100.57 6.07422 100.857 6.50391L101.411 7.30469V34.4531V61.6211L99.7295 61.6797L98.0273 61.7383V35.7422C98.0273 8.88672 98.0478 9.23828 97.2275 8.65234C96.7559 8.30078 8.24414 8.30078 7.77246 8.65234C6.95215 9.23828 6.97266 8.88672 6.97266 35.7422V61.7383L5.29102 61.6797L3.58887 61.6211V34.4531V7.30469L4.12207 6.52344C5.22949 4.94141 0.512697 5.07812 52.459 5.07812C95.2588 5.07812 98.9502 5.09766 99.6064 5.41016ZM94.541 36.6211V61.5234H52.5H10.459V36.6211V11.7188H52.5H94.541V36.6211ZM101.514 68.6523C101.514 72.6172 101.411 73.125 100.365 74.0625C100.037 74.3555 99.5039 74.6875 99.1963 74.7852C98.7861 74.9414 84.5742 75 52.4795 75C2.25586 75 5.61914 75.0781 4.4707 73.9062C3.58887 72.9883 3.48633 72.4609 3.48633 68.6328V65.0391H52.5H101.514V68.6523ZM59.5547 78.75C59.5957 79.0039 59.7393 79.9219 59.8828 80.8008C60.252 83.3984 61.5645 86.543 62.8154 87.832L63.2256 88.2812H52.5H41.7744L42.1846 87.832C43.4355 86.543 44.748 83.3984 45.1172 80.8008C45.2607 79.9219 45.4043 79.0039 45.4453 78.75L45.5273 78.3203H52.5H59.4727L59.5547 78.75ZM76.4121 92.207C77.0479 92.7734 77.0684 93.8477 76.4531 94.4727L76.0225 94.9219H52.5205H29.0391L28.5674 94.4922C27.6855 93.7109 28.1162 92.1094 29.2646 91.7773C29.4082 91.7383 39.9697 91.7188 52.7256 91.7383L75.9199 91.7578L76.4121 92.207Z" fill="#E70082"/>
<path d="M23.2764 15.5275L22.7637 15.9963V32.4025V48.8088L23.2559 49.3557L23.748 49.9025L44.3174 50.0002L64.8867 50.0979L65.7891 52.9299C66.7529 56.0158 67.1836 56.6408 68.332 56.6408C68.8242 56.6408 69.2549 56.3479 70.4648 55.2346L72.0029 53.8283L74.1973 55.9182C76.4121 58.0275 77.0068 58.3986 77.8271 58.2424C78.0938 58.2033 79.5908 56.9143 81.1904 55.3908C84.9229 51.7971 84.9023 52.1096 81.7236 49.0432L79.3857 46.7775L80.8008 45.3908C81.9492 44.2775 82.2363 43.8674 82.2363 43.3986C82.2363 42.3049 81.5801 41.8947 78.3398 40.9768L75.3662 40.1174L75.3047 28.0861L75.2637 16.0744L74.751 15.5471L74.2588 15.0393H49.0137H23.7686L23.2764 15.5275ZM71.7773 20.801V23.2424H49.0137H26.25V20.801V18.3596H49.0137H71.7773V20.801ZM71.7773 32.9299C71.7773 37.7932 71.7158 39.0822 71.5312 39.0041C70.1162 38.4963 63.4512 36.7189 62.9385 36.7189C62.0156 36.7189 61.3184 37.383 61.3184 38.2229C61.3184 38.7307 63.1846 45.0588 63.7178 46.426C63.7998 46.6213 59.9854 46.6799 45.0352 46.6799H26.25V36.7189V26.758H49.0137H71.7773V32.9299ZM73.2129 43.008C75.1816 43.5549 76.8838 44.0432 76.9658 44.0822C77.0479 44.1408 76.7607 44.551 76.3301 45.0002C74.7305 46.6604 74.874 47.1291 77.6836 49.8439L79.8574 51.9533L78.6475 53.1252L77.4375 54.2971L75.2637 52.2658C72.4541 49.6291 71.6748 49.4729 69.9111 51.1135C69.501 51.4846 69.1113 51.7189 69.0498 51.6213C69.0088 51.5432 68.4961 49.9221 67.9219 48.0471C67.3477 46.1721 66.6094 43.7893 66.2812 42.7541L65.6865 40.8791L67.6553 41.4455C68.7422 41.758 71.2441 42.4611 73.2129 43.008Z" fill="#E70082"/>
<path d="M30.3926 33.789C29.7363 34.3749 29.6953 34.7069 29.7773 38.7304C29.8389 42.2265 29.8594 42.3827 30.3105 42.8124C30.7617 43.2616 30.7822 43.2616 38.1035 43.3202C42.123 43.3593 45.6299 43.3202 45.876 43.2616C46.1221 43.203 46.5322 42.9687 46.7578 42.7343C47.1475 42.3437 47.168 42.0507 47.168 38.3397C47.168 34.3749 47.168 34.3554 46.6553 33.8866L46.1631 33.3983H38.4932C31.0898 33.3983 30.8232 33.4179 30.3926 33.789ZM43.6816 38.3788V40.039H38.4521H33.2227V38.3788V36.7187H38.4521H43.6816V38.3788Z" fill="#E70082"/>
<path d="M46.0606 68.8672C45.3428 69.5703 45.3633 70.3711 46.1221 71.1133L46.7168 71.6797H52.5H58.2832L58.8779 71.1133C59.6367 70.3711 59.6572 69.5703 58.9395 68.8672L58.3857 68.3594H52.5H46.6143L46.0606 68.8672Z" fill="#E70082"/>
</svg>
