<svg width="312" height="298" viewBox="0 0 312 298" fill="none" xmlns="http://www.w3.org/2000/svg">
<g clip-path="url(#clip0_160_2114)">
<path d="M23.0345 7.6246C12.6142 9.95273 3.4126 19.7891 0.91416 31.1387C-0.426465 37.1918 -0.426465 204.293 0.91416 210.288C3.53447 222.103 12.797 231.765 23.6438 233.918C27.6657 234.733 65.0813 234.791 67.2751 233.977C70.9923 232.638 72.0892 227.458 69.2251 224.722L67.6407 223.209L46.4345 222.918C26.0813 222.627 25.1673 222.569 22.7907 221.346C19.3782 219.6 15.5392 215.352 13.8938 211.336L12.4923 208.076V152.201V96.3262L144.909 96.1516L277.266 96.0352V125.719V155.402H275.011C272.208 155.402 267.82 157.265 265.627 159.244L263.981 160.757L259.838 159.011C257.522 158.08 255.024 157.09 254.292 156.916C253.256 156.625 252.891 155.926 252.586 153.482C251.855 148.36 249.234 144.693 244.725 142.481C241.8 141.026 231.136 140.386 225.774 141.375C219.131 142.539 214.744 147.021 214.074 153.249L213.769 156.334L208.345 158.545L202.922 160.757L201.033 159.186C197.742 156.625 195.549 155.81 191.649 155.81C189.15 155.81 187.261 156.159 185.555 157.032C182.264 158.662 172.149 168.556 170.93 171.234C169.041 175.657 170.381 182.059 173.977 185.668L175.5 187.181L173.124 192.361L170.747 197.6L167.517 197.891C163.739 198.298 161.241 199.404 158.986 201.79C155.756 205.108 155.147 206.912 154.903 215.177L154.659 222.918H135.769H116.878L115.111 224.606C112.125 227.458 112.978 232.056 116.817 233.918C117.731 234.384 126.324 234.559 144.544 234.559H170.93L173.245 239.797L175.622 245.093L173.794 247.014C169.955 251.205 169.041 257.258 171.6 262.03C173.184 264.999 182.874 273.962 185.92 275.301C189.699 276.93 194.025 276.814 197.864 275.01C199.57 274.195 201.399 273.031 201.947 272.449C202.922 271.401 203.166 271.459 208.345 273.496L213.769 275.592L214.439 279.375C215.292 284.264 217.486 287.232 221.752 289.386C224.799 290.899 225.408 291.016 232.903 291.016C237.291 291.016 241.922 290.725 243.202 290.375C248.32 288.862 252.099 284.148 252.708 278.444C252.891 276.698 253.378 275.301 253.744 275.301C254.109 275.301 256.608 274.37 259.289 273.264L264.103 271.227L265.992 272.973C269.831 276.523 276.413 277.513 281.227 275.301C284.395 273.846 294.633 263.951 295.852 261.157C297.802 256.618 296.644 250.564 293.109 247.072L291.281 245.268L293.414 240.67C294.572 238.109 295.547 235.664 295.547 235.257C295.547 234.85 296.4 234.559 297.741 234.559C301.702 234.559 304.87 233.278 307.734 230.484C311.33 227.05 312 224.78 312 215.468C312 208.309 311.878 207.727 310.294 204.817C307.978 200.568 304.688 198.414 299.813 197.949L296.034 197.6L294.633 194.049C293.841 192.07 292.805 189.684 292.256 188.695C291.403 187.123 291.403 186.89 292.256 186.192C292.805 185.784 294.024 184.096 294.999 182.467C298.228 177.112 297.253 171.292 292.195 165.937L290.124 163.784L289.941 98.3051L289.758 32.8848L288.113 28.1703C285.249 20.2547 279.277 12.9793 273.122 9.95273C266.724 6.80978 273.122 6.98438 144.422 7.04257C77.8782 7.1008 24.2532 7.33359 23.0345 7.6246ZM265.261 19.5562C268.978 20.7785 272.939 24.4453 275.194 28.8687L276.961 32.3027L277.144 58.3195L277.327 84.3945H144.727H12.1267L12.3095 58.9016C12.4923 34.0488 12.5532 33.4086 13.8938 30.2074C16.1485 24.8528 20.6579 20.6039 25.5938 19.1488C26.447 18.916 80.072 18.6832 144.788 18.6832C251.002 18.625 262.702 18.7414 265.261 19.5562ZM240.094 157.265C240.094 160.117 240.459 162.154 241.191 163.551C242.105 165.413 242.775 165.763 248.016 167.392C251.184 168.382 256.059 170.302 258.802 171.583C261.605 172.921 264.469 174.027 265.261 174.027C266.967 174.027 268.795 172.863 272.574 169.429L275.438 166.81L280.008 171.117C282.506 173.504 284.578 175.715 284.578 176.064C284.578 176.414 283.238 177.985 281.531 179.557C279.886 181.128 278.18 183.282 277.814 184.329C277.205 186.134 277.388 186.774 280.191 192.245C281.897 195.504 283.847 200.044 284.517 202.314C286.345 208.193 287.564 209.124 294.206 209.531L299.508 209.822L299.691 215.584C299.813 219.309 299.63 221.579 299.142 222.103C298.655 222.685 297.009 222.918 293.719 222.918C287.381 222.918 286.467 223.616 284.274 230.31C283.359 233.162 281.409 237.702 279.886 240.495C277.388 245.093 277.205 245.675 277.814 247.48C278.18 248.586 279.886 250.739 281.531 252.311C283.238 253.882 284.578 255.454 284.578 255.803C284.578 256.559 275.925 264.824 275.072 264.824C274.767 264.824 273 263.369 271.172 261.623C266.663 257.258 265.566 257.141 259.106 260.343C256.181 261.798 251.428 263.66 248.503 264.475C241.495 266.512 240.703 267.443 240.703 273.555C240.703 276.698 240.459 278.269 239.85 278.735C239.302 279.2 236.925 279.375 233.025 279.259L226.992 279.084L226.688 274.02C226.261 267.676 225.286 266.512 219.131 264.766C216.755 264.068 212.063 262.205 208.711 260.634C203.166 257.956 202.495 257.782 200.484 258.364C199.327 258.713 197.011 260.284 195.305 261.914C193.659 263.486 192.014 264.824 191.649 264.824C191.283 264.824 189.028 262.904 186.53 260.517C181.594 255.803 181.472 255.163 185.189 252.66C187.383 251.146 189.516 247.945 189.516 246.199C189.516 245.443 188.297 242.591 186.834 239.855C185.372 237.12 183.544 232.871 182.813 230.484C180.802 224.14 179.766 223.267 173.184 222.918L167.883 222.627L167.7 216.05L167.517 209.531H171.966C174.952 209.531 177.084 209.182 178.547 208.484C180.497 207.611 180.863 206.97 182.813 201.383C184.031 198.007 186.042 193.467 187.261 191.255C188.48 189.044 189.516 186.716 189.516 186.134C189.516 184.388 187.992 182.059 185.006 179.266C183.483 177.869 182.203 176.414 182.203 176.123C182.203 175.133 190.308 167.625 191.344 167.625C191.892 167.625 193.416 168.673 194.695 170.011C197.499 172.747 199.814 174.027 201.947 174.027C202.739 174.027 205.786 172.863 208.589 171.466C211.453 170.011 215.78 168.265 218.278 167.625C221.325 166.752 223.275 165.821 224.433 164.657C225.956 163.085 226.078 162.561 226.078 158.429C226.078 155.926 226.261 153.656 226.505 153.482C226.688 153.249 229.856 153.074 233.513 153.074H240.094V157.265Z" fill="white"/>
<path d="M51.7969 32.8848C48.0188 33.8742 42.9 37.0172 41.0109 39.4617C37.5984 43.8852 36.8672 46.0387 36.8672 51.8008C36.8672 56.3988 37.1109 57.7957 38.2688 60.0074C40.5234 64.3727 43.5703 67.2828 47.9578 69.3781C51.5531 71.066 52.65 71.2988 56.9766 71.2988C61.0594 71.2988 62.4609 71.0078 65.5078 69.6691C70.2 67.5738 74.4656 63.2668 76.1719 58.9016C78 54.3617 77.6953 47.4937 75.5625 43.3613C71.2969 34.9801 60.9984 30.4984 51.7969 32.8848ZM62.2781 45.8059C65.9953 49.007 66.1172 54.3035 62.5828 57.4465C59.7797 59.891 56.8547 60.4148 53.8078 59.018C48.1406 56.3406 47.1047 49.7637 51.7359 45.7477C54.2344 43.5359 59.7188 43.5941 62.2781 45.8059Z" fill="white"/>
<path d="M105.361 32.7684C94.8187 35.6204 88.3594 45.1657 90.2484 55.1184C91.5281 61.7536 95.6719 66.8173 102.314 69.7856C107.128 71.9391 113.953 71.9391 118.889 69.7274C123.277 67.8067 127.055 64.2563 129.127 60.0075C130.467 57.272 130.711 55.9333 130.711 51.8009C130.711 47.552 130.467 46.388 129.005 43.536C124.739 35.213 114.197 30.3821 105.361 32.7684ZM115.781 45.9223C119.437 48.4833 119.62 54.0708 116.147 57.3884C113.466 59.9493 110.541 60.4149 107.128 58.8434C103.837 57.3302 102.375 55.0602 102.375 51.568C102.375 49.3563 102.741 48.5415 104.386 46.7954C107.494 43.536 112.003 43.1868 115.781 45.9223Z" fill="white"/>
<path d="M178.364 32.652C165.872 35.4457 158.803 48.716 163.861 59.7164C165.567 63.325 170.199 67.8066 174.22 69.6691L177.633 71.2988H209.93C242.227 71.2988 242.227 71.2988 245.213 69.9602C249.844 67.9813 253.074 65.0711 255.328 61.0551C260.264 52.15 257.522 41.4406 248.747 35.6785C243.385 32.1281 241.8 32.0117 209.625 32.0699C193.72 32.1281 179.644 32.3609 178.364 32.652ZM241.861 45.3402C245.578 47.9012 246.614 52.4992 244.177 55.9332C241.374 60.0074 241.739 59.9492 210.783 59.9492C195.488 59.9492 182.081 59.7746 180.985 59.6C178.364 59.0762 175.135 55.9332 174.647 53.3141C174.099 50.6949 175.927 46.3879 177.999 45.3402C180.985 43.827 183.422 43.7105 211.149 43.827L239.789 43.9434L241.861 45.3402Z" fill="white"/>
<path d="M224.25 181.361C214.012 183.922 204.445 191.314 199.997 200.277C196.828 206.505 195.975 210.87 196.341 218.436C196.584 223.151 197.011 225.188 198.352 228.447C202.8 239.099 210.661 246.316 221.934 250.099C227.662 252.078 237.656 252.311 243.445 250.623C256.12 247.014 265.931 237.643 269.709 225.537C271.355 220.241 271.233 211.568 269.466 206.039C265.566 193.991 254.719 184.097 242.409 181.303C237.595 180.255 228.637 180.255 224.25 181.361ZM243.994 194.282C259.716 201.325 263.494 220.532 251.611 232.522C239.545 244.744 218.827 241.718 211.027 226.585C209.137 222.918 208.772 221.521 208.528 217.447C208.223 211.452 209.32 207.494 212.611 202.78C215.597 198.473 220.228 195.097 225.408 193.351C231.197 191.43 238.387 191.779 243.994 194.282Z" fill="white"/>
<path d="M96.4641 129.793C95.7328 130.084 94.6969 130.957 94.1484 131.714C92.9906 133.401 80.9859 180.779 80.8641 184.096C80.8031 185.959 81.1078 186.657 82.7531 188.054C86.2266 191.023 91.1016 189.8 92.5641 185.493C93.9656 181.361 104.873 136.952 104.934 135.264C104.934 132.819 103.959 131.132 101.766 130.084C99.8156 129.094 98.475 129.036 96.4641 129.793Z" fill="white"/>
<path d="M55.6971 134.624C53.1377 136.021 35.9533 155.053 35.2221 157.265C34.0033 161.164 35.1002 163.027 44.8502 173.504C49.7252 178.742 54.2955 183.514 54.9658 184.038C55.6971 184.679 57.2205 185.086 58.744 185.086C62.2783 185.086 64.594 182.816 64.594 179.44C64.594 177.229 64.1065 176.53 56.6721 168.498C52.3455 163.842 48.7502 159.768 48.7502 159.535C48.7502 159.302 50.3346 157.439 52.2846 155.344C65.0205 141.608 64.594 142.132 64.594 139.629C64.594 135.206 59.658 132.412 55.6971 134.624Z" fill="white"/>
<path d="M123.216 135.322C121.083 137.068 120.474 139.338 121.57 141.725C121.997 142.656 125.714 147.021 129.736 151.328C133.758 155.635 137.11 159.36 137.11 159.535C137.11 159.768 133.636 163.609 129.431 168.149C120.291 177.985 119.316 180.197 122.911 183.573C124.069 184.737 125.105 185.086 126.994 185.086C128.335 185.086 129.919 184.737 130.467 184.329C133.149 182.409 149.967 163.609 150.577 161.921C151.856 158.254 150.881 156.392 143.935 148.825C140.339 144.926 135.647 139.979 133.453 137.767C129.98 134.391 129.188 133.867 127.238 133.867C125.775 133.867 124.435 134.333 123.216 135.322Z" fill="white"/>
<path d="M88.9078 223.791C85.3734 225.654 85.1906 230.426 88.5422 233.162C90.1266 234.442 90.8578 234.617 92.8687 234.384C96.2812 233.918 98.1094 231.823 98.1094 228.447C98.1094 226.352 97.8047 225.712 96.2203 224.431C94.1484 222.743 91.4062 222.511 88.9078 223.791Z" fill="white"/>
</g>
<defs>
<clipPath id="clip0_160_2114">
<rect width="312" height="298" fill="white"/>
</clipPath>
</defs>
</svg>
