<svg width="312" height="298" viewBox="0 0 312 298" fill="none" xmlns="http://www.w3.org/2000/svg">
<g clip-path="url(#clip0_160_2125)">
<path d="M14.3203 23.9215C8.59221 25.202 2.62034 30.673 0.914087 36.2605C-0.487476 40.684 -0.487476 220.066 0.914087 224.431C2.37659 228.971 5.78909 232.754 10.6031 235.141L14.8078 237.178L63.1313 237.352C107.067 237.469 111.516 237.585 111.516 238.458C111.516 239.68 108.53 263.02 108.103 264.65C107.859 265.988 107.677 265.988 99.45 265.988C90.3094 265.988 88.8469 266.396 88.1156 269.189C87.6891 270.877 89.0297 273.787 90.4922 274.37C91.8328 274.835 220.167 274.835 221.508 274.37C222.97 273.787 224.311 270.877 223.884 269.189C223.153 266.396 221.691 265.988 212.55 265.988C204.323 265.988 204.141 265.988 203.897 264.708C203.47 263.02 200.484 239.68 200.484 238.458C200.484 237.585 204.933 237.469 248.869 237.352L297.192 237.178L301.397 235.141C304.383 233.686 306.211 232.289 307.795 230.252C312.305 224.548 312 231.998 312 130.433C312 49.8801 311.878 38.8797 311.086 36.2023C309.745 31.9535 305.723 27.4719 301.336 25.3183L297.741 23.5723L157.28 23.4559C72.211 23.4559 15.7828 23.6305 14.3203 23.9215ZM297.436 33.3504C299.325 34.2816 300.544 35.4457 301.519 37.25L302.859 39.8109V130.317C302.859 220.648 302.859 220.823 301.58 223.267C300.848 224.78 299.386 226.352 298.106 227.109L295.852 228.447H156H16.1485L13.8938 227.109C12.6141 226.352 11.1516 224.78 10.4203 223.267C9.14065 220.823 9.14065 220.648 9.14065 130.317V39.8109L10.5422 37.25C11.4563 35.4457 12.675 34.2816 14.5641 33.3504L17.2453 32.0117H156H294.755L297.436 33.3504ZM138.938 241.543C140.827 248.527 143.203 251.67 148.931 254.464C152.527 256.268 159.534 256.268 163.313 254.406C168.736 251.729 171.234 248.469 173.062 241.543L174.038 237.76L182.569 237.585L191.1 237.411L192.928 251.729L194.756 265.988H156H117.244L119.072 251.729L120.9 237.411L129.431 237.585L137.963 237.76L138.938 241.543ZM164.288 239.331C163.313 243.987 159.839 247.363 156 247.363C152.161 247.363 148.688 243.987 147.713 239.331L147.347 237.469H156H164.714L164.288 239.331Z" fill="white"/>
<path d="M21.0234 43.3615L19.5 44.7583V130.375C19.5 214.77 19.5 215.934 20.7188 217.098C22.3641 218.669 24.1312 219.018 30.5297 218.786C35.4656 218.553 36.1969 218.436 37.2328 217.156C38.8172 215.293 38.6953 212.907 36.9891 211.394C35.8922 210.404 34.7953 210.113 32.1141 210.113H28.6406V130.375V50.6368H144.422H260.264L261.848 49.1236C263.067 47.9595 263.311 47.3193 263.006 45.806C262.823 44.7583 262.031 43.4779 261.361 42.8958C260.142 41.9646 253.5 41.9064 141.253 41.9064H22.4859L21.0234 43.3615Z" fill="white"/>
<path d="M275.133 43.3611C273.183 45.1654 273.122 47.6681 275.011 49.356C276.108 50.3455 277.205 50.6365 279.886 50.6365H283.359V130.375V210.113H167.334H51.2484L50.0297 211.626C49.2984 212.499 48.75 213.547 48.75 213.954C48.75 215.468 50.1516 217.563 51.6141 218.203C52.65 218.669 85.8 218.844 170.686 218.844C296.278 218.844 291.038 218.96 292.134 216.224C292.317 215.701 292.5 176.879 292.5 130.026V44.758L290.977 43.3611C289.575 42.0224 289.088 41.906 283.055 41.906C277.022 41.906 276.534 42.0224 275.133 43.3611Z" fill="white"/>
<path d="M85.4953 70.5422C84.764 70.8914 83.85 71.8808 83.4844 72.6957C82.2656 75.5476 83.4844 77.0027 91.2234 81.95L98.414 86.548L106.884 115.009C111.516 130.666 115.842 144.344 116.452 145.391L117.609 147.312L114.136 153.831C110.053 161.572 109.687 164.366 112.247 168.032C113.77 170.302 113.831 170.419 112.978 173.503C112.308 175.948 112.247 177.345 112.734 179.673C115.477 192.187 132.783 194.631 139.181 183.398C140.705 180.662 140.887 179.848 140.644 176.297L140.4 172.281H160.875H181.35L181.106 176.064C180.862 179.266 181.106 180.313 182.447 183.049C188.175 194.224 205.116 192.652 208.772 180.604C209.686 177.578 209.747 176.879 208.955 174.027C208.223 171.408 208.223 170.535 208.833 169.371C209.686 167.741 209.381 166.112 207.919 164.54C207.066 163.609 204.141 163.551 163.495 163.551C134.367 163.551 120.047 163.376 120.047 162.969C120.047 162.619 121.266 160.059 122.728 157.265L125.409 152.143L127.786 152.376C131.442 152.667 196.097 145.1 199.57 143.994C203.775 142.598 209.077 137.534 210.417 133.576C210.966 131.946 213.22 122.052 215.414 111.517C219.07 93.707 219.314 92.2519 218.4 90.9715C217.912 90.2148 216.877 89.3418 216.145 89.0507C215.414 88.7597 192.197 87.5957 164.531 86.4316C108.834 84.1617 106.641 84.0453 106.641 83.0558C106.58 82.6484 106.092 81.8336 105.544 81.1351C104.02 79.4472 88.8469 69.8437 87.75 69.9019C87.2625 69.9019 86.2265 70.1929 85.4953 70.5422ZM127.786 93.9398C128.091 94.2308 130.955 109.713 131.016 111.284C131.016 111.575 127.481 111.75 123.216 111.75H115.416L112.612 102.379L109.809 92.9504L118.645 93.2996C123.459 93.4742 127.603 93.7652 127.786 93.9398ZM151.612 94.6964L156.609 95.0457V103.369V111.75H148.505H140.4L139.059 103.718C138.328 99.3527 137.719 95.3949 137.719 94.9875C137.719 94.1726 143.264 94.0562 151.612 94.6964ZM183.239 96.2097C183.3 96.3261 183.117 99.8765 182.691 104.067L182.02 111.75H173.855H165.75V103.485V95.2785L174.403 95.6277C179.095 95.8605 183.117 96.0933 183.239 96.2097ZM208.833 97.3738C209.016 97.5484 207.37 106.046 206.273 110.411C205.969 111.692 205.725 111.75 198.595 111.75H191.161L191.587 106.919C191.831 104.3 192.197 100.866 192.38 99.2945L192.745 96.4425L200.667 96.7918C204.994 97.0246 208.65 97.2574 208.833 97.3738ZM132.478 120.946C132.844 121.586 136.622 142.714 136.378 142.889C136.256 143.005 134.245 143.238 131.869 143.471C125.409 144.053 124.983 143.587 121.266 131.248C119.62 125.777 118.219 121.179 118.219 120.888C118.219 120.306 132.112 120.364 132.478 120.946ZM156.305 130.666V140.561L151.125 141.259C148.322 141.666 145.884 141.899 145.762 141.783C145.58 141.608 141.984 121.819 141.984 120.888C141.984 120.655 145.214 120.539 149.175 120.597L156.305 120.771V130.666ZM180.741 124.089C180.558 126.126 180.192 130.026 180.009 132.819C179.522 138.523 179.827 138.232 173.977 138.756C171.966 138.989 169.284 139.28 168.066 139.455L165.75 139.804V130.142V120.48H173.428H181.167L180.741 124.089ZM203.958 121.761C203.775 122.518 203.287 124.729 202.861 126.766C201.581 133.111 198.534 136.021 192.258 136.603C189.211 136.894 188.906 136.836 188.906 135.788C188.906 133.925 190.186 121.994 190.43 121.179C190.612 120.655 192.623 120.48 197.498 120.48C204.202 120.48 204.262 120.48 203.958 121.761ZM130.223 173.562C132.966 176.006 131.625 180.488 127.847 181.768C125.897 182.409 123.033 180.953 122.119 178.916C120.047 174.144 126.262 170.011 130.223 173.562ZM198.23 173.096C200.058 174.435 200.728 177.17 199.631 179.149C198.656 181.012 195.67 182.35 193.903 181.768C188.297 179.906 189.15 172.223 194.939 172.281C196.158 172.281 197.62 172.689 198.23 173.096Z" fill="white"/>
</g>
<defs>
<clipPath id="clip0_160_2125">
<rect width="312" height="298" fill="white"/>
</clipPath>
</defs>
</svg>
