<?xml version="1.0" standalone="no"?>
<!DOCTYPE svg PUBLIC "-//W3C//DTD SVG 20010904//EN"
 "http://www.w3.org/TR/2001/REC-SVG-20010904/DTD/svg10.dtd">
<svg version="1.0" xmlns="http://www.w3.org/2000/svg"
 width="1267.000000pt" height="582.000000pt" viewBox="0 0 1267.000000 582.000000"
 preserveAspectRatio="xMidYMid meet">

<g transform="translate(0.000000,582.000000) scale(0.100000,-0.100000)"
fill="#000000" stroke="none">
<path d="M3637 5624 c-4 -4 -30 -8 -59 -10 -29 -2 -54 -8 -56 -13 -2 -5 -10
-7 -18 -4 -8 3 -14 0 -14 -6 0 -6 -3 -10 -7 -10 -23 4 -44 -4 -92 -35 -62 -40
-121 -92 -121 -107 0 -6 -4 -7 -10 -4 -5 3 -10 0 -10 -8 0 -8 -6 -17 -14 -20
-17 -7 -93 -159 -101 -202 -3 -16 -8 -48 -11 -70 -9 -59 -8 -1958 0 -2039 22
-211 176 -397 386 -469 l65 -22 1233 -3 c1034 -2 1237 -5 1255 -16 35 -23 439
-246 444 -246 3 0 17 -8 31 -18 15 -11 56 -34 92 -52 36 -19 76 -41 90 -50 14
-10 54 -32 90 -50 36 -19 72 -39 80 -45 39 -30 189 -104 194 -96 4 5 0 16 -8
24 -8 8 -13 17 -10 20 3 3 1 13 -5 24 -5 10 -20 46 -33 81 -13 34 -27 62 -31
62 -5 0 -5 5 -2 10 3 6 1 10 -5 10 -6 0 -8 4 -5 10 3 5 -1 22 -9 37 -8 16 -29
66 -47 113 -18 47 -38 94 -45 105 -6 11 -14 32 -18 47 l-6 27 942 3 943 3 67
23 c143 48 274 163 334 292 39 83 57 148 50 184 -3 14 -1 28 3 30 10 7 7 2015
-3 2041 -15 39 -19 50 -22 68 -8 38 -66 138 -99 172 -20 19 -33 35 -30 35 4 0
0 7 -9 15 -8 8 -19 15 -25 15 -6 0 -15 9 -21 20 -6 11 -17 20 -25 20 -8 0 -15
4 -15 8 0 12 -75 52 -98 52 -11 0 -22 5 -24 10 -2 6 -39 17 -83 25 -68 12
-465 14 -2591 15 -1381 0 -2514 -3 -2517 -6z m2182 -344 c88 -40 140 -132 128
-223 -3 -23 -22 -73 -41 -112 -19 -38 -36 -79 -38 -90 -2 -11 -6 -22 -10 -25
-9 -7 -87 -268 -91 -305 -2 -17 -6 -36 -10 -42 -4 -6 -9 -30 -11 -54 -3 -24
-6 -44 -7 -44 -1 0 -3 -9 -5 -20 -2 -11 -13 -65 -23 -121 -11 -56 -22 -119
-25 -140 -3 -21 -10 -64 -16 -94 -5 -30 -13 -82 -16 -115 -3 -33 -8 -76 -10
-95 -2 -19 -6 -51 -8 -70 -13 -90 -19 -194 -22 -430 -4 -264 -11 -316 -52
-363 -53 -60 -148 -77 -221 -39 -24 13 -49 28 -56 35 -7 7 -21 19 -31 28 -25
20 -126 137 -138 158 -5 9 -12 18 -16 21 -28 20 -217 356 -240 426 -7 19 -16
34 -21 34 -6 0 -7 5 -4 10 4 6 2 16 -3 23 -11 15 -20 38 -86 235 l-52 153 -73
-151 c-41 -82 -74 -157 -74 -165 0 -8 -3 -15 -6 -15 -3 0 -58 -102 -121 -227
-63 -126 -117 -230 -120 -233 -3 -3 -23 -34 -44 -70 -159 -263 -296 -343 -398
-232 -29 32 -98 166 -98 191 0 5 -8 26 -17 47 -9 22 -16 43 -15 48 2 4 -3 14
-9 22 -6 8 -9 14 -6 14 3 0 -4 28 -15 63 -11 34 -22 73 -24 87 -3 13 -16 67
-30 120 -14 52 -27 104 -30 115 -2 11 -20 92 -39 180 -20 88 -38 174 -40 190
-3 17 -16 89 -30 160 -13 72 -27 146 -30 165 -3 19 -18 109 -35 200 -16 91
-32 183 -35 205 -2 22 -7 53 -11 68 -20 95 -26 201 -14 247 18 66 82 125 154
140 68 14 136 5 179 -24 37 -24 76 -97 83 -153 8 -65 63 -407 75 -459 5 -27
10 -61 9 -76 0 -15 4 -30 10 -33 6 -4 8 -10 5 -15 -3 -4 4 -52 16 -107 11 -54
22 -107 24 -118 1 -11 3 -20 5 -20 2 0 3 -7 13 -76 5 -30 43 -204 63 -284 3
-11 7 -31 9 -45 15 -88 16 -87 73 23 29 56 79 152 110 212 187 354 221 419
267 507 101 196 128 244 156 280 74 93 223 104 288 22 36 -46 50 -88 86 -260
28 -137 44 -203 61 -259 2 -5 8 -32 14 -58 5 -27 13 -54 17 -60 4 -6 8 -18 8
-27 3 -28 59 -195 68 -201 5 -3 8 -10 8 -15 -1 -13 20 -77 28 -87 6 -6 16 65
37 263 21 190 102 561 166 756 17 55 32 101 33 104 0 3 11 27 23 54 12 27 22
53 22 57 0 5 11 27 25 49 14 22 25 43 25 46 0 4 12 23 26 41 52 69 166 92 253
53z m1014 -270 c119 -30 201 -75 281 -155 124 -123 209 -327 222 -534 2 -31 4
-60 5 -66 3 -23 -11 -178 -22 -242 -7 -37 -12 -79 -13 -93 -1 -14 -3 -27 -6
-30 -3 -3 -15 -34 -25 -70 -10 -36 -26 -81 -34 -100 -8 -19 -15 -37 -16 -40
-6 -23 -71 -140 -113 -202 -111 -164 -241 -266 -392 -309 -58 -16 -68 -17
-170 -18 -103 -2 -106 -1 -200 29 -120 38 -245 130 -306 226 -10 16 -21 31
-24 34 -10 9 -67 143 -84 195 -60 191 -52 488 20 725 53 176 173 381 284 488
166 159 379 217 593 162z m1607 -10 c103 -34 170 -76 245 -154 189 -194 258
-514 189 -876 -9 -47 -18 -92 -19 -100 -1 -8 -5 -22 -8 -30 -4 -8 -18 -46 -32
-85 -62 -168 -150 -312 -261 -422 -46 -46 -87 -83 -92 -83 -4 0 -23 -11 -41
-24 -34 -25 -93 -47 -173 -65 -81 -18 -275 -12 -313 10 -5 4 -28 12 -49 19
-105 34 -221 127 -287 230 -45 69 -58 99 -104 225 -4 11 -9 31 -11 45 -2 14
-6 36 -10 50 -4 14 -8 36 -10 50 -5 43 -4 276 2 322 35 286 157 552 333 729
88 88 176 140 282 169 98 27 263 22 359 -10z"/>
<path d="M6611 4585 c-93 -41 -215 -224 -263 -393 -36 -128 -28 -374 13 -428
5 -6 6 -14 2 -17 -3 -4 -2 -7 4 -7 5 0 10 -6 10 -14 0 -23 42 -83 79 -111 103
-79 275 24 369 220 60 126 80 214 79 355 -1 100 -6 165 -14 165 -1 0 -3 9 -4
20 -7 47 -49 134 -84 174 -37 42 -42 44 -98 47 -36 2 -72 -2 -93 -11z"/>
<path d="M8175 4586 c-39 -17 -102 -78 -144 -139 -46 -68 -92 -157 -85 -168 3
-5 1 -9 -4 -9 -17 0 -47 -126 -59 -252 -10 -106 36 -286 91 -361 75 -101 196
-89 315 33 53 54 124 171 124 205 0 8 3 15 7 15 8 0 39 126 46 190 6 57 5 211
-2 222 -3 4 -8 21 -10 36 -13 72 -50 147 -105 205 -22 24 -35 30 -85 33 -36 2
-71 -2 -89 -10z"/>
<path d="M1258 1895 c-349 -66 -612 -334 -674 -687 -21 -119 -14 -316 16 -436
61 -249 217 -445 447 -560 168 -85 404 -110 606 -65 l67 15 0 202 0 203 -57
-13 c-206 -48 -367 -12 -479 108 -141 151 -165 456 -50 653 35 58 117 132 184
163 51 24 68 27 167 26 62 0 137 -7 173 -16 l62 -15 0 203 0 202 -52 12 c-83
19 -320 22 -410 5z"/>
<path d="M2365 1894 c-116 -25 -226 -85 -309 -167 -122 -121 -188 -259 -222
-463 -22 -134 -14 -420 15 -546 82 -359 283 -549 619 -588 242 -28 456 37 600
182 141 143 208 311 234 585 22 231 -15 469 -99 643 -81 169 -233 294 -418
345 -87 24 -328 29 -420 9z m278 -387 c73 -31 131 -128 158 -268 16 -79 16
-340 1 -434 -21 -127 -39 -173 -91 -225 -102 -101 -253 -90 -333 25 -47 68
-60 140 -65 355 -9 327 33 480 145 540 44 23 137 26 185 7z"/>
<path d="M10567 1895 c-277 -53 -520 -250 -624 -507 -77 -190 -83 -490 -14
-690 45 -132 100 -218 206 -324 83 -83 116 -108 191 -147 195 -100 420 -128
637 -80 l67 15 0 205 c0 191 -1 205 -17 198 -10 -4 -58 -14 -108 -23 -314 -54
-535 143 -535 478 0 212 96 382 257 458 53 24 68 27 168 26 62 0 137 -7 173
-16 l62 -15 0 203 0 202 -52 12 c-83 19 -320 22 -411 5z"/>
<path d="M3560 1863 c-1 -5 -49 -386 -108 -848 l-108 -840 215 -3 c117 -1 215
-1 217 1 2 2 30 262 63 578 32 315 59 571 60 567 1 -11 281 -1110 287 -1131 5
-16 19 -17 162 -15 l156 3 137 563 c76 310 139 565 141 568 2 2 31 -253 64
-566 l59 -570 228 0 c125 0 227 2 227 5 0 12 -221 1643 -226 1668 l-6 27 -295
-2 -296 -3 -48 -205 c-58 -242 -110 -487 -134 -623 -10 -54 -19 -96 -21 -94
-2 2 -24 109 -49 238 -40 200 -121 586 -141 665 l-6 24 -289 0 c-159 0 -289
-3 -289 -7z"/>
<path d="M5636 1858 c-2 -7 -50 -375 -106 -818 -55 -443 -104 -820 -107 -837
l-5 -33 219 0 219 0 53 538 c29 295 56 553 60 572 6 28 34 -72 151 -538 l145
-572 157 0 156 0 70 288 c38 158 100 414 138 569 37 155 69 281 71 279 2 -1
28 -239 58 -527 30 -288 57 -543 60 -566 l6 -43 225 0 c207 0 224 1 224 18 0
24 -220 1654 -225 1670 -6 15 -580 18 -590 2 -11 -17 -143 -598 -170 -750 -15
-80 -29 -149 -32 -154 -3 -5 -38 153 -78 350 -77 377 -112 541 -121 556 -3 4
-133 8 -290 8 -219 0 -285 -3 -288 -12z"/>
<path d="M8630 1020 l0 -850 230 0 230 0 2 382 3 382 184 -382 184 -382 244 0
243 0 -19 37 c-45 89 -341 714 -341 721 0 4 20 18 45 31 112 60 212 218 222
353 22 301 -204 514 -580 547 -50 5 -217 9 -369 10 l-278 2 0 -851z m600 499
c91 -21 139 -72 154 -165 21 -123 -62 -200 -224 -211 l-75 -6 2 189 c0 104 1
195 2 201 1 14 59 10 141 -8z"/>
<path d="M11160 1020 l0 -850 465 0 465 0 0 180 0 180 -235 0 -235 0 0 155 0
155 200 0 200 0 0 175 0 175 -200 0 -200 0 0 155 0 155 235 0 235 0 -2 183 -3
182 -462 3 -463 2 0 -850z"/>
<path d="M7570 1010 l0 -850 463 2 462 3 0 180 0 180 -232 3 -233 2 0 155 0
155 200 0 200 0 0 175 0 175 -200 0 -200 0 0 155 0 155 230 0 230 0 0 180 0
180 -460 0 -460 0 0 -850z"/>
</g>
</svg>
